<svg width="36" height="49" viewBox="0 0 36 49" fill="none" xmlns="http://www.w3.org/2000/svg">
<path d="M34.7219 34.3234C34.9449 34.2224 35.1497 34.4945 34.994 34.6838C33.7416 36.197 31.4739 39.2123 31.9872 40.6498C31.9872 40.6498 32.2088 42.6917 29.3225 43.0339L29.2973 43.1194C28.8345 42.9862 28.2076 42.8937 27.3591 42.8937C27.3591 42.8937 27.296 42.0915 27.0324 41.0901C29.3436 41.1041 29.4642 39.3006 29.3885 38.4367C29.3646 38.1632 29.1178 37.9641 28.8457 37.9992C26.9342 38.2348 26.9118 40.6652 26.9118 40.6652H26.9104C26.62 39.7185 26.1488 38.6737 25.3957 37.9851H25.3859C25.7295 35.6262 23.1266 34.6866 22.5586 34.5099C23.4393 34.3486 24.3579 34.1635 25.3158 33.9531C25.8585 34.2603 30.0027 36.4453 34.7219 34.3234Z" fill="#F6343C"/>
<path d="M24.4338 46.5912L24.4127 46.674C23.6512 49.4999 23.0594 47.9446 22.8308 47.1031C22.7803 46.9124 22.5517 46.8338 22.396 46.9544C19.7805 48.988 18.1018 46.5337 18.1018 46.5337C12.6323 45.1313 10.5987 39.5917 10.5987 39.5917C9.47677 39.0307 5.76172 36.1795 5.76172 36.1795C6.85562 35.8696 7.44885 35.1571 7.77001 34.4531C8.61007 34.7561 9.57915 34.9945 10.6927 35.1529L10.6688 35.3142C10.6688 35.3142 12.0502 38.5034 14.1665 39.7908C14.6433 40.0811 15.2646 39.8876 15.4778 39.3715C16.0528 37.9803 17.3753 35.3423 19.2237 35.0337V35.0239C20.2685 34.8921 21.3793 34.7196 22.5573 34.5036C23.1253 34.6803 25.7282 35.62 25.3846 37.9774H25.3944C26.1475 38.6674 26.6188 39.7123 26.9091 40.6589C26.9539 40.8034 26.9946 40.945 27.0311 41.0838C27.2947 42.0852 27.3578 42.8874 27.3578 42.8874C28.2063 42.8874 28.8332 42.9799 29.296 43.1132C30.4418 43.4399 30.5834 44.0093 30.5834 44.0093C31.5974 49.4143 30.0786 47.9474 29.4405 47.1592C29.2848 46.9657 29.0281 46.8801 28.7883 46.9474C27.5289 47.3008 26.3761 46.9544 26.3761 46.9544C25.6819 46.8717 25.0312 46.7441 24.4338 46.5912ZM24.6932 39.802C26.3761 37.1374 23.5713 36.2959 23.5713 36.2959L21.0469 37.1374C18.4425 36.4362 18.1985 37.9522 18.2729 38.8764C18.3093 39.3378 18.4692 39.7852 18.7637 40.1414C19.8744 41.4793 21.3274 39.802 21.3274 39.802H24.6932Z" fill="#0099FF"/>
<path d="M25.3166 33.9516C24.3587 34.1619 23.4401 34.347 22.5594 34.5083C21.3814 34.7243 20.2706 34.8968 19.2244 35.0286C15.7113 35.4746 12.9149 35.4746 10.6948 35.1577C9.58126 34.9992 8.61218 34.7608 7.77212 34.4578C8.18584 33.5491 8.14657 32.6543 8.14657 32.6543L4.92097 30.9714C4.36841 28.7597 3.43999 28.2857 2.64201 28.3727C2.28158 25.3771 3.51853 22.5568 3.51853 22.5568C3.51853 22.5568 3.49329 20.4391 4.4792 17.9147C5.07103 16.3987 6.02749 14.7368 7.57297 13.2965H7.57438C8.63602 12.3064 9.97675 11.4228 11.6695 10.7637H11.6765L13.8952 10.0849H13.898C14.7591 9.88575 15.6917 9.73989 16.7014 9.65435C16.7014 9.65435 17.5906 9.54355 19.0337 9.75252L18.9804 10.9825C18.9608 11.4256 19.2735 11.8127 19.7111 11.8856C19.7686 11.8954 19.8247 11.8996 19.8808 11.8996C20.3365 11.8996 20.7489 11.5953 20.8723 11.1409L21.1233 10.2209C22.6534 10.6809 24.4681 11.4859 26.3782 12.8799L26.3642 12.9599C27.0472 13.0791 27.991 13.1394 29.1509 12.9599C29.6319 12.8856 30.1326 12.9907 30.514 13.2937C31.1101 13.7677 31.4452 14.7326 29.3851 16.588C29.3416 16.6273 29.2981 16.6637 29.2532 16.7002L29.3121 16.7745C29.3121 16.7745 35.9148 27.7458 26.0978 33.7763C25.8341 33.8366 25.5732 33.8955 25.3166 33.9516ZM17.7533 24.3449C17.7533 23.861 17.3606 23.4683 16.8767 23.4683C16.3929 23.4683 16.0002 23.861 16.0002 24.3449C16.0002 24.8287 16.3929 25.2214 16.8767 25.2214C17.3606 25.2214 17.7533 24.8287 17.7533 24.3449ZM12.0033 24.3449C12.0033 23.861 11.6106 23.4683 11.1267 23.4683C10.6429 23.4683 10.2502 23.861 10.2502 24.3449C10.2502 24.8287 10.6429 25.2214 11.1267 25.2214C11.6106 25.2214 12.0033 24.8287 12.0033 24.3449Z" fill="#FFD9B5"/>
<path d="M29.3883 38.4338C29.464 39.2977 29.3434 41.1012 27.0322 41.0872C26.9957 40.9483 26.955 40.8067 26.9102 40.6622H26.9116C26.9116 40.6622 26.934 38.2318 28.8455 37.9962C29.1176 37.9611 29.3644 38.1603 29.3883 38.4338Z" fill="#FFD9B5"/>
<path d="M23.5729 36.2969C23.5729 36.2969 26.3778 37.1383 24.6949 39.803H21.329C21.329 39.803 19.8761 41.4803 18.7654 40.1424C18.4709 39.7861 18.311 39.3388 18.2745 38.8774C18.2002 37.9532 18.4442 36.4371 21.0485 37.1383L23.5729 36.2969Z" fill="#F6343C"/>
<path d="M23.1989 0.811898C23.9492 0.970373 24.4344 1.70385 24.283 2.45696L23.8454 4.64476C23.694 5.40347 22.9675 5.90555 22.2032 5.77793L21.8904 5.72603L21.6099 6.98823L22.4626 7.11024C22.9577 7.18176 23.3027 7.6053 23.3027 8.07792C23.3027 8.16627 23.2901 8.25743 23.2648 8.34719C23.1218 8.84926 22.6211 9.1606 22.1078 9.06804L21.4697 8.95164L21.1233 10.2194C20.3449 9.98523 19.6395 9.84078 19.0337 9.75103L19.0855 8.53091L18.561 8.48743C17.9902 8.43975 17.5625 7.96152 17.5625 7.40475C17.5625 7.35707 17.5653 7.30798 17.5723 7.2589C17.634 6.8003 18.0562 6.48055 18.5134 6.54646L19.6465 6.70774L19.927 5.44555L19.2735 5.3053C18.5568 5.15244 18.1109 4.43579 18.289 3.72476L18.9159 1.2186C19.0884 0.524398 19.7798 0.0924477 20.4796 0.239704L23.1989 0.811898ZM22.2817 3.18061C22.3743 2.80897 22.1401 2.43452 21.7656 2.35318L21.0966 2.21013C20.7502 2.1358 20.4038 2.33354 20.2916 2.67013L20.1626 3.0572C20.0378 3.43165 20.2692 3.83134 20.6549 3.90848L21.3575 4.04872C21.7347 4.12445 22.1036 3.89025 22.1976 3.5172L22.2817 3.18061Z" fill="#AB8872"/>
<path d="M21.1223 10.2184L20.8713 11.1384C20.7479 11.5928 20.3355 11.8971 19.8798 11.8971C19.8237 11.8971 19.7676 11.8929 19.7101 11.8831C19.2725 11.8102 18.9598 11.4231 18.9794 10.9799L19.0327 9.75C19.6385 9.83976 20.344 9.98421 21.1223 10.2184Z" fill="#AB8872"/>
<path d="M19.2234 35.0312V35.0411C17.3764 35.3496 16.0539 37.9876 15.4789 39.3788C15.2657 39.8949 14.6444 40.0884 14.1676 39.7981C12.0513 38.5107 10.6699 35.3216 10.6699 35.3216L10.6938 35.1603C12.9138 35.4772 15.7103 35.4772 19.2234 35.0312Z" fill="#F6343C"/>
<path d="M16.8765 25.2218C17.3606 25.2218 17.753 24.8294 17.753 24.3453C17.753 23.8612 17.3606 23.4688 16.8765 23.4688C16.3924 23.4688 16 23.8612 16 24.3453C16 24.8294 16.3924 25.2218 16.8765 25.2218Z" fill="#212121"/>
<path d="M15.2257 6.97543C15.3042 7.56726 14.8947 8.11421 14.3043 8.20537L13.5441 8.32177L13.8962 10.0832H13.8934C13.0926 10.2684 12.3549 10.4955 11.6747 10.762H11.6677L11.3002 8.7425L10.0689 8.90658C9.57946 8.9725 9.12507 8.64293 9.03391 8.15768L8.95397 7.72714C8.8572 7.21104 9.21062 6.71738 9.73092 6.64305L10.7393 6.4986L10.4588 4.39495L10.2807 4.72171C10.0731 5.10318 9.68324 5.30934 9.28775 5.30934C9.03251 5.30934 8.77306 5.22379 8.55989 5.04287C8.12233 4.67263 8.02977 4.03592 8.34391 3.55629L10.0226 0.998246C10.4125 0.405015 11.2203 0.257759 11.7953 0.675685L14.5623 2.68818C14.8358 2.88733 14.9816 3.19727 14.9816 3.51281C14.9816 3.71196 14.9227 3.91391 14.8007 4.09062C14.4319 4.62354 13.6788 4.7119 13.1963 4.27854L12.7027 3.83397L13.1234 6.07787L14.042 6.01196C14.0687 6.01196 14.0953 6.00915 14.122 6.00915C14.6759 6.00915 15.1513 6.41866 15.2257 6.97543Z" fill="#AB8872"/>
<path d="M11.1246 25.2218C11.6087 25.2218 12.0011 24.8294 12.0011 24.3453C12.0011 23.8612 11.6087 23.4688 11.1246 23.4688C10.6405 23.4688 10.248 23.8612 10.248 24.3453C10.248 24.8294 10.6405 25.2218 11.1246 25.2218Z" fill="#212121"/>
<path d="M8.14519 32.6506C8.14519 32.6506 8.18446 33.5454 7.77074 34.4542C4.1791 33.1625 2.92111 30.7125 2.64062 28.369C3.43861 28.282 4.36702 28.7561 4.91958 30.9677L8.14519 32.6506Z" fill="#F6343C"/>
<path d="M7.7712 34.4602C7.45004 35.1642 6.85681 35.8766 5.76291 36.1866C5.58901 36.2357 5.40108 36.2749 5.20054 36.303L2.81639 32.6566C2.81639 32.6566 0.104081 32.2387 0.617372 30.236C0.819323 29.4493 1.38591 28.7915 2.14322 28.4998C2.3003 28.4395 2.46719 28.3946 2.64109 28.375C2.92158 30.7185 4.17956 33.1685 7.7712 34.4602Z" fill="#F6343C"/>
<path d="M7.57225 13.2969C6.02676 14.7372 5.0703 16.3991 4.47847 17.9151C2.14342 16.2714 2.31171 15.1186 2.79134 14.4735C3.08024 14.0836 3.55287 13.8775 4.03951 13.8803C5.8753 13.8887 7.47408 13.3319 7.57225 13.2969Z" fill="#FFD9B5"/>
<path d="M19.5759 28.6597C20.8152 28.6597 21.8198 27.655 21.8198 26.4158C21.8198 25.1765 20.8152 24.1719 19.5759 24.1719C18.3367 24.1719 17.332 25.1765 17.332 26.4158C17.332 27.655 18.3367 28.6597 19.5759 28.6597Z" fill="#FFB9AF"/>
<path d="M8.91773 28.6597C10.157 28.6597 11.1616 27.655 11.1616 26.4158C11.1616 25.1765 10.157 24.1719 8.91773 24.1719C7.67846 24.1719 6.67383 25.1765 6.67383 26.4158C6.67383 27.655 7.67846 28.6597 8.91773 28.6597Z" fill="#FFB9AF"/>
<path d="M7.86585 25.8567C8.13694 25.8567 8.35671 25.6369 8.35671 25.3659C8.35671 25.0948 8.13694 24.875 7.86585 24.875C7.59476 24.875 7.375 25.0948 7.375 25.3659C7.375 25.6369 7.59476 25.8567 7.86585 25.8567Z" fill="white"/>
<path d="M18.6647 25.8567C18.9358 25.8567 19.1555 25.6369 19.1555 25.3659C19.1555 25.0948 18.9358 24.875 18.6647 24.875C18.3936 24.875 18.1738 25.0948 18.1738 25.3659C18.1738 25.6369 18.3936 25.8567 18.6647 25.8567Z" fill="white"/>
<path d="M14.9999 36.3126C14.7713 36.0363 14.3885 35.9381 14.0421 35.9549C13.8471 35.9648 13.6424 36.004 13.4923 36.1373C13.3423 36.2705 13.2904 36.4781 13.3324 36.673C13.4264 37.1106 13.885 37.2382 14.2637 37.3097C14.3576 37.3279 14.4614 37.342 14.5498 37.3812C14.6115 37.4093 14.6409 37.4429 14.6577 37.492C14.6914 37.5916 14.6662 37.7066 14.5722 37.7879C14.3198 38.0081 13.8934 37.8903 13.7518 37.6042C13.7013 37.5018 13.5568 37.4738 13.4643 37.5285C13.3605 37.5888 13.3381 37.7136 13.3885 37.816C13.5526 38.1512 13.9481 38.3489 14.3155 38.3167C14.7068 38.2816 15.0616 38.0263 15.0897 37.6126C15.1023 37.4345 15.0364 37.2438 14.906 37.1204C14.7489 36.9703 14.5259 36.9324 14.3212 36.8946C14.1543 36.8637 13.9593 36.8357 13.8289 36.7179C13.749 36.6463 13.6901 36.5061 13.7938 36.436C13.9173 36.3518 14.1318 36.3631 14.2721 36.3827C14.4432 36.4065 14.5946 36.4753 14.7054 36.6099C14.7784 36.6968 14.9284 36.6856 15.0027 36.6099C15.0897 36.5229 15.0757 36.3995 15.0027 36.3126H14.9999Z" fill="white"/>
<path d="M28.5863 42.9702C28.5863 42.9702 28.554 46.0008 27.0801 47.0751L29.0996 46.9741L30.387 48.0428L30.962 47.587L30.9354 45.2042L30.4459 43.7233L28.5863 42.9688V42.9702Z" fill="#F6343C"/>
<path d="M21.9128 45.7905C21.9128 45.7905 22.4976 46.911 21.457 47.5323L22.6842 46.9377L23.4359 48.3008L23.8931 48.0835L24.412 46.6796L21.9114 45.7891L21.9128 45.7905Z" fill="#F6343C"/>
<path d="M28.5863 42.9766C28.5863 42.9766 28.4839 46.0773 27.0801 47.0815" stroke="#212121" stroke-width="0.420731" stroke-miterlimit="10"/>
<path d="M21.9128 45.7891C21.9128 45.7891 22.4275 47.12 21.457 47.5309" stroke="#212121" stroke-width="0.420731" stroke-miterlimit="10"/>
<path d="M2.57486 14.8594C2.57486 14.8594 4.33492 16.8845 5.22407 16.252L4.52986 18.0724C4.52986 18.0724 2.26492 16.0613 2.57626 14.8594H2.57486Z" fill="white"/>
<path d="M31.0062 14.1342C31.0062 14.1342 27.9924 17.1621 25.1875 16.7413C25.1875 16.7413 26.7288 17.7553 28.343 17.2476C28.343 17.2476 30.4943 16.1299 30.7159 15.1033L31.0076 14.1328L31.0062 14.1342Z" fill="white"/>
<path d="M27.43 42.6842C24.3446 44.7879 14.3354 44.5284 14.3354 44.5284L12.623 43.2396C12.623 43.2396 21.1386 44.2367 27.1944 41.6016L27.43 42.6828V42.6842Z" fill="#FEDB0E"/>
<path d="M13.0547 43.4542C13.0547 43.4542 21.1383 44.2353 27.1941 41.6016" stroke="#212121" stroke-width="0.420731" stroke-miterlimit="10"/>
<path d="M14.3164 44.5806C14.3164 44.5806 24.2737 44.7208 27.3591 42.6172" stroke="#212121" stroke-width="0.420731" stroke-miterlimit="10"/>
<path d="M3.76688 22.5585C3.76407 22.3705 3.7767 22.1812 3.79072 21.9933C3.80615 21.7787 3.82858 21.5627 3.85523 21.3496C3.85944 21.3187 3.86365 21.2893 3.86645 21.2584C3.86785 21.2458 3.86084 21.2963 3.86645 21.2528C3.86926 21.2346 3.87206 21.2163 3.87346 21.1981C3.88328 21.1294 3.8931 21.0621 3.90432 20.9933C3.92676 20.8461 3.952 20.7002 3.98005 20.553C4.11468 19.8391 4.30121 19.1365 4.54102 18.4507C4.82992 17.6233 5.19456 16.8309 5.64474 16.0736C6.15663 15.2139 6.7709 14.4187 7.48053 13.7119C8.30236 12.8957 9.24339 12.2085 10.2616 11.6587C11.4887 10.9968 12.8168 10.541 14.1772 10.2437C15.1392 10.0333 16.1322 9.87202 17.1181 9.83976C18.104 9.80751 19.0773 9.93233 20.0295 10.1441C21.7657 10.5298 23.4192 11.2296 24.9381 12.1496C25.4065 12.4343 25.8623 12.7386 26.3054 13.0612C26.5242 13.221 26.7346 12.8564 26.5172 12.6979C24.91 11.5297 23.1261 10.5957 21.2216 10.0207C20.0548 9.66867 18.8333 9.44428 17.6131 9.41623C16.8348 9.398 16.055 9.49757 15.2865 9.61257C13.7999 9.83696 12.34 10.231 10.9656 10.8439C9.83382 11.3474 8.77358 12.0065 7.83254 12.8129C7.01773 13.5099 6.30248 14.3177 5.69803 15.2027C5.16651 15.9824 4.72895 16.8225 4.37413 17.6962C4.08102 18.4199 3.84822 19.1688 3.67712 19.9317C3.5481 20.5067 3.45133 21.0901 3.39243 21.6763C3.36438 21.954 3.33493 22.2387 3.34054 22.5192C3.34054 22.5318 3.34054 22.5444 3.34054 22.5571C3.34334 22.8277 3.76407 22.8277 3.76127 22.5571L3.76688 22.5585Z" fill="#212121"/>
<path d="M7.55977 13.0917C7.13203 13.246 6.68325 13.354 6.23868 13.4451C5.79411 13.5363 5.32429 13.6064 4.86149 13.6415C4.39868 13.6765 3.93167 13.6176 3.49551 13.7593C2.95978 13.9346 2.52783 14.3694 2.37917 14.9163C2.25996 15.3525 2.35253 15.8026 2.55027 16.2009C2.94576 16.9975 3.70167 17.5936 4.4113 18.0956C4.63289 18.2527 4.84325 17.8881 4.62307 17.7324C4.02002 17.3061 3.40155 16.8124 3.01447 16.1715C2.81393 15.8377 2.69191 15.4422 2.76905 15.0916C2.86301 14.6653 3.1982 14.2838 3.6582 14.1492C3.86435 14.0889 4.0649 14.0931 4.27807 14.0889C4.51508 14.0847 4.7521 14.072 4.9877 14.051C5.41124 14.0131 5.83197 13.9528 6.2499 13.8701C6.72813 13.7761 7.21197 13.6625 7.67197 13.497C7.92441 13.4059 7.81642 12.9992 7.55977 13.0917Z" fill="#212121"/>
<path d="M25.0036 16.6726C25.8521 17.6852 27.3162 17.8927 28.5055 17.4047C29.152 17.1396 29.6667 16.681 30.1421 16.179C30.5011 15.7989 30.8447 15.3768 31.0523 14.8915C31.2949 14.3249 31.2725 13.6953 30.8153 13.2451C30.4198 12.8566 29.8448 12.6813 29.2992 12.7332C28.943 12.7668 28.5924 12.8271 28.2348 12.8468C27.9136 12.8636 27.5911 12.865 27.2699 12.8468C26.7622 12.8173 26.256 12.7402 25.7665 12.5971C25.6291 12.5579 25.4944 12.5116 25.3612 12.4611C25.3458 12.4555 25.2728 12.4232 25.3374 12.4513C25.3233 12.4457 25.3079 12.4387 25.2939 12.4317C25.2827 12.426 25.27 12.4204 25.2588 12.4148C25.0176 12.2942 24.803 12.6574 25.0471 12.7781C25.4748 12.9912 25.9685 13.1006 26.4369 13.1749C26.9726 13.2605 27.5153 13.2928 28.0581 13.2745C28.3877 13.2633 28.7172 13.2324 29.044 13.189C29.3708 13.1455 29.6512 13.1217 29.957 13.2142C30.1589 13.2759 30.3497 13.3825 30.5039 13.5284C30.5965 13.6167 30.6259 13.6532 30.6848 13.7556C30.7886 13.9351 30.8209 14.1524 30.776 14.3768C30.7031 14.7499 30.4955 15.0865 30.2683 15.3852C29.9051 15.8662 29.4479 16.3501 28.9486 16.6895C27.8281 17.4524 26.2139 17.465 25.3009 16.3739C25.127 16.1663 24.8311 16.4651 25.0036 16.6712V16.6726Z" fill="#212121"/>
<path d="M26.2416 33.9599C27.8867 32.9459 29.3536 31.6178 30.3409 29.9405C31.1445 28.5745 31.5891 27.0319 31.7027 25.4541C31.8037 24.0559 31.648 22.645 31.3269 21.2833C31.0702 20.195 30.7042 19.1333 30.254 18.111C30.0436 17.6327 29.8277 17.1307 29.5444 16.6903C29.5402 16.6833 29.5359 16.6777 29.5331 16.6707C29.3943 16.4393 29.0297 16.6496 29.1699 16.8824C29.3859 17.2415 29.5696 17.6215 29.7449 18.0016C30.1656 18.9075 30.5177 19.8724 30.7855 20.8597C31.1347 22.1486 31.3339 23.4809 31.31 24.8174C31.2834 26.3068 30.965 27.792 30.3017 29.1299C29.4869 30.7708 28.2022 32.1213 26.703 33.1577C26.4828 33.3106 26.257 33.4564 26.0299 33.5967C25.8027 33.7369 26.0102 34.1029 26.2416 33.9599Z" fill="#212121"/>
<path d="M3.37531 22.4499C3.29818 22.6238 3.23226 22.8033 3.16775 22.9828C3.01769 23.4049 2.89147 23.8341 2.78488 24.2688C2.63062 24.8929 2.52123 25.5282 2.45812 26.1691C2.38799 26.8886 2.38239 27.6164 2.46513 28.3345C2.55769 29.1325 2.75403 29.9108 3.0808 30.6471C3.4286 31.4297 3.92927 32.1421 4.54354 32.7395C5.28262 33.4576 6.17177 34.0045 7.11561 34.4084C8.3764 34.947 9.72274 35.2457 11.0803 35.414C12.9161 35.6426 14.7771 35.63 16.6199 35.5023C19.1205 35.3284 21.6056 34.9386 24.0612 34.4407C24.7737 34.2962 25.4847 34.142 26.193 33.9793C26.4566 33.919 26.3444 33.5137 26.0808 33.574C23.4905 34.1672 20.8707 34.6595 18.2271 34.94C16.2637 35.1475 14.2779 35.2457 12.3046 35.1111C10.8797 35.0143 9.45347 34.7913 8.09731 34.3355C7.55177 34.1518 7.06091 33.947 6.55183 33.675C6.12689 33.4478 5.6739 33.1533 5.33592 32.8812C4.64171 32.3216 4.1158 31.7059 3.69647 30.9444C3.5997 30.7691 3.51275 30.591 3.43141 30.4073C3.42159 30.3848 3.41177 30.3638 3.40336 30.3414C3.41037 30.3568 3.40336 30.3414 3.39074 30.3105C3.37251 30.2642 3.35287 30.2165 3.33464 30.1703C3.29958 30.0791 3.26592 29.988 3.23507 29.8954C3.11306 29.5336 3.01909 29.1605 2.95318 28.7847C2.93635 28.6921 2.92232 28.5995 2.9083 28.507C2.9069 28.4944 2.89568 28.4172 2.90409 28.4803C2.90129 28.4607 2.89848 28.4397 2.89568 28.42C2.89007 28.3695 2.88305 28.3205 2.87885 28.27C2.85921 28.0862 2.84519 27.9025 2.83678 27.7188C2.81995 27.3612 2.82275 27.0022 2.84238 26.6459C2.8522 26.4734 2.86623 26.3024 2.88306 26.1313C2.89147 26.0499 2.89988 25.9686 2.9097 25.8872C2.91391 25.8466 2.91952 25.8073 2.92513 25.768C2.92793 25.7442 2.91952 25.8115 2.92793 25.7512C2.93074 25.7288 2.93354 25.7077 2.93775 25.6853C2.98123 25.3781 3.03732 25.0724 3.10184 24.7695C3.20562 24.2885 3.33464 23.8116 3.49031 23.3446C3.56885 23.109 3.65439 22.8776 3.74696 22.6476C3.74976 22.642 3.71891 22.7121 3.73854 22.6658C3.84653 22.4204 3.4833 22.2058 3.37531 22.4541V22.4499Z" fill="#212121"/>
<path d="M11.1636 25.2218C11.6477 25.2218 12.0402 24.8294 12.0402 24.3453C12.0402 23.8612 11.6477 23.4688 11.1636 23.4688C10.6795 23.4688 10.2871 23.8612 10.2871 24.3453C10.2871 24.8294 10.6795 25.2218 11.1636 25.2218Z" fill="#212121"/>
<path d="M16.9156 25.2218C17.3997 25.2218 17.7921 24.8294 17.7921 24.3453C17.7921 23.8612 17.3997 23.4688 16.9156 23.4688C16.4315 23.4688 16.0391 23.8612 16.0391 24.3453C16.0391 24.8294 16.4315 25.2218 16.9156 25.2218Z" fill="#212121"/>
<path d="M12.9801 24.8319C13.0488 24.9693 13.154 25.0998 13.269 25.2007C13.5242 25.4251 13.8426 25.4966 14.1596 25.3578C14.405 25.2498 14.5887 25.0409 14.7472 24.8319C14.8159 24.7407 14.7612 24.5963 14.6714 24.5444C14.5635 24.4813 14.4527 24.529 14.3839 24.6201C14.3208 24.7029 14.2507 24.7814 14.1736 24.8501C14.1581 24.8641 14.1427 24.8768 14.1273 24.8908C14.095 24.9174 14.1175 24.8992 14.1245 24.8936C14.1175 24.8992 14.1091 24.9048 14.1021 24.9104C14.0684 24.9329 14.0347 24.9539 13.9997 24.9735C13.98 24.9833 13.9464 24.9946 13.9856 24.9819C13.9688 24.9876 13.9534 24.9946 13.9366 24.9988C13.9225 25.003 13.9099 25.0072 13.8959 25.01C13.8875 25.0114 13.8777 25.0128 13.8692 25.0156C13.8454 25.024 13.9099 25.0128 13.8861 25.0142C13.858 25.0142 13.8314 25.0184 13.8047 25.017C13.7949 25.017 13.7472 25.0128 13.7851 25.017C13.823 25.0212 13.7697 25.0128 13.7613 25.0114C13.7486 25.0086 13.6939 24.9988 13.6897 24.989C13.6939 24.9974 13.7346 25.01 13.6981 24.9918C13.6841 24.9848 13.6715 24.9777 13.6575 24.9707C13.635 24.9581 13.614 24.9427 13.5916 24.9287C13.5621 24.9104 13.6252 24.9581 13.5986 24.9343C13.5874 24.9244 13.5761 24.916 13.5649 24.9062C13.5285 24.874 13.4948 24.8389 13.4639 24.8024C13.4443 24.78 13.4191 24.7421 13.4527 24.7898C13.4415 24.7744 13.4289 24.759 13.4177 24.7421C13.391 24.7043 13.3672 24.665 13.3461 24.6243C13.2957 24.5234 13.1526 24.4939 13.0586 24.5486C12.9549 24.6089 12.9324 24.7351 12.9829 24.8361L12.9801 24.8319Z" fill="#212121"/>
<path d="M12.0037 26.241C12.4889 26.5846 13.2294 26.6926 13.66 26.2059C13.8872 25.9493 14.0008 25.6127 14.0667 25.2817C14.0891 25.1709 14.0344 25.0545 13.9194 25.0223C13.8156 24.9942 13.6824 25.0573 13.66 25.1695C13.6305 25.3238 13.5913 25.4767 13.5324 25.6225C13.531 25.6267 13.5155 25.6604 13.5295 25.6309C13.5239 25.6435 13.5183 25.6562 13.5127 25.6674C13.4987 25.6968 13.4847 25.7263 13.4678 25.7543C13.4552 25.7754 13.444 25.7964 13.43 25.8174C13.4216 25.8301 13.4145 25.8413 13.4061 25.8539C13.4033 25.8595 13.3697 25.903 13.3879 25.8806C13.4019 25.8623 13.3613 25.9128 13.3528 25.9212C13.3388 25.9366 13.3248 25.9507 13.3094 25.9647C13.2911 25.9815 13.2729 25.997 13.2547 26.0124C13.2953 25.9787 13.2463 26.018 13.2294 26.0278C13.1958 26.0488 13.1593 26.0657 13.1242 26.0839C13.1789 26.0573 13.1313 26.0797 13.1144 26.0853C13.092 26.0923 13.071 26.0993 13.0485 26.1035C13.0303 26.1077 13.0121 26.1106 12.9938 26.1148C12.97 26.1204 13.0429 26.112 12.9826 26.1148C12.9447 26.1176 12.9069 26.119 12.8676 26.1176C12.8494 26.1176 12.8325 26.1148 12.8143 26.1134C12.7554 26.1092 12.8297 26.1176 12.8059 26.1134C12.768 26.1063 12.7302 26.0993 12.6923 26.0909C12.6278 26.0755 12.5661 26.0545 12.5044 26.0306C12.4469 26.0096 12.517 26.0376 12.4988 26.0292C12.4875 26.0236 12.4749 26.0194 12.4637 26.0138C12.437 26.0012 12.4104 25.9885 12.3838 25.9745C12.3263 25.9451 12.2702 25.9128 12.2183 25.8763C12.1257 25.8104 11.9841 25.8595 11.9308 25.9521C11.8691 26.0573 11.9139 26.1737 12.0065 26.2396L12.0037 26.241Z" fill="#212121"/>
<path d="M15.5818 25.8791C15.5397 25.91 15.4935 25.9352 15.4472 25.9605C15.4009 25.9857 15.3504 26.0082 15.2999 26.032C15.2803 26.0418 15.3518 26.0124 15.2999 26.032C15.2845 26.0376 15.2705 26.0432 15.255 26.0488C15.2228 26.0601 15.1891 26.0713 15.1555 26.0811C15.1218 26.0909 15.0895 26.0993 15.0559 26.1063C15.0391 26.1105 15.0208 26.1134 15.004 26.1162C14.9479 26.126 15.0461 26.1134 14.99 26.1176C14.9535 26.1204 14.9185 26.1232 14.882 26.1218C14.8638 26.1218 14.8455 26.1218 14.8273 26.119C14.8175 26.119 14.8077 26.1162 14.7964 26.1162C14.7572 26.1148 14.8455 26.1274 14.8035 26.1162C14.767 26.1077 14.7305 26.1021 14.6941 26.0895C14.6786 26.0839 14.6618 26.0769 14.6464 26.0727C14.7039 26.0867 14.6464 26.0727 14.6253 26.0615C14.5889 26.0418 14.5552 26.0194 14.5216 25.997C14.5706 26.032 14.5075 25.9843 14.4977 25.9745C14.4795 25.9577 14.4613 25.9395 14.4444 25.9198C14.4346 25.9086 14.3869 25.8483 14.415 25.8876C14.3981 25.8637 14.3813 25.8413 14.3659 25.816C14.328 25.7571 14.2958 25.694 14.2663 25.6295C14.2705 25.6379 14.2789 25.6618 14.2635 25.6211C14.2551 25.6001 14.2481 25.5804 14.2397 25.5594C14.2271 25.5229 14.2144 25.4865 14.2032 25.4486C14.1752 25.356 14.1541 25.2635 14.1359 25.1695C14.1135 25.0573 13.9802 24.9942 13.8764 25.0223C13.76 25.0545 13.7081 25.1695 13.7292 25.2817C13.8274 25.7852 14.0658 26.3518 14.6057 26.5032C14.9423 26.5972 15.2985 26.5032 15.6028 26.3504C15.6674 26.3181 15.7319 26.2831 15.7908 26.241C15.8833 26.1751 15.9268 26.0573 15.8665 25.9535C15.8132 25.8623 15.6716 25.8118 15.579 25.8777L15.5818 25.8791Z" fill="#212121"/>
<path d="M10.0617 0.998166L8.38297 3.55621C8.06883 4.03444 8.16139 4.67255 8.59895 5.04279C9.1445 5.50419 9.97754 5.34993 10.3197 4.72163L10.4978 4.39487L10.7783 6.49852L9.76998 6.64297C9.24968 6.7173 8.89627 7.21096 8.99303 7.72706L9.07437 8.1576C9.16553 8.64285 9.61992 8.97242 10.1094 8.9065L11.3407 8.74242L11.7082 10.7633L13.9366 10.0831L13.5846 8.32169L14.3447 8.20529C14.9352 8.11413 15.3447 7.56858 15.2661 6.97535C15.189 6.39194 14.6701 5.9698 14.0839 6.01188L13.1653 6.07779L12.7446 3.83389L13.2382 4.27846C13.7206 4.71182 14.4738 4.62487 14.8426 4.09054C15.1581 3.63615 15.0516 3.01347 14.6042 2.6881L11.8372 0.675605C11.2622 0.257679 10.4544 0.404935 10.0645 0.999568L10.0617 0.998166Z" stroke="#212121" stroke-width="0.420731" stroke-miterlimit="10"/>
<path d="M18.9529 1.2186L18.326 3.72476C18.1479 4.43579 18.5953 5.15244 19.3106 5.3053L19.9641 5.44555L19.6836 6.70774L18.5504 6.54646C18.0932 6.48055 17.6711 6.8017 17.6094 7.2589C17.5267 7.87597 17.9782 8.43554 18.5981 8.48743L19.1226 8.53091L19.0174 10.981C18.9978 11.4241 19.3106 11.8112 19.7481 11.8841C20.2684 11.9711 20.7705 11.6499 20.9093 11.1394L21.5068 8.95164L22.1449 9.06804C22.6582 9.162 23.1588 8.85066 23.3019 8.34859C23.4646 7.7778 23.0873 7.19439 22.4997 7.11024L21.647 6.98823L21.9275 5.72604L22.2402 5.77793C23.0032 5.90555 23.731 5.40347 23.8825 4.64476L24.3201 2.45696C24.4701 1.70385 23.9863 0.970373 23.2346 0.811898L20.5152 0.239704C19.8154 0.0924477 19.1254 0.524398 18.9515 1.2186H18.9529Z" stroke="#212121" stroke-width="0.420731" stroke-miterlimit="10"/>
<path d="M21.1326 2.21083L21.803 2.35388C22.1774 2.43382 22.4116 2.80967 22.3191 3.18131L22.2349 3.5179C22.141 3.89095 21.7721 4.12515 21.3949 4.04942L20.6936 3.90918C20.3066 3.83204 20.0752 3.43235 20.2 3.0593L20.329 2.67083C20.4412 2.33565 20.7876 2.1365 21.134 2.21083H21.1326Z" stroke="#212121" stroke-width="0.420731" stroke-miterlimit="10"/>
<path d="M21.0873 37.1383L23.6117 36.2969C23.6117 36.2969 26.4165 37.1383 24.7336 39.803H21.3678C21.3678 39.803 19.9148 41.4803 18.8041 40.1424C18.5082 39.7861 18.3497 39.3388 18.3133 38.8774C18.2403 37.9532 18.483 36.4371 21.0873 37.1383Z" stroke="#212121" stroke-width="0.420731" stroke-miterlimit="10"/>
<path d="M26.9492 40.6634C26.9492 40.6634 26.9731 38.2329 28.8832 37.9959C29.1552 37.9623 29.4035 38.16 29.4273 38.4335C29.5017 39.2974 29.381 41.1023 27.0698 41.0869" stroke="#212121" stroke-width="0.420731" stroke-miterlimit="10"/>
<path d="M24.25 46.7651C24.156 47.1101 24.0564 47.4607 23.9049 47.7861C23.8573 47.8871 23.8068 47.9894 23.7423 48.0806C23.7184 48.1142 23.7086 48.1283 23.682 48.1577C23.6707 48.1703 23.6048 48.2307 23.6343 48.204C23.6217 48.2152 23.6048 48.2222 23.5908 48.2307C23.595 48.2278 23.6315 48.211 23.5978 48.2264C23.5571 48.2447 23.6104 48.2405 23.5698 48.2307C23.6539 48.2503 23.5109 48.1984 23.5824 48.2363C23.567 48.2278 23.5095 48.1914 23.5487 48.2208C23.445 48.1409 23.4113 48.0708 23.344 47.9417C23.271 47.8015 23.2276 47.6851 23.1757 47.528C23.1196 47.3597 23.0929 47.148 22.9765 47.0091C22.8812 46.8969 22.7409 46.831 22.5937 46.8338C22.3959 46.8366 22.2557 46.9811 22.1028 47.0877C21.8125 47.2896 21.4984 47.4635 21.1618 47.5715C20.2712 47.859 19.3709 47.6052 18.6935 46.9797C18.5939 46.8871 18.4986 46.7889 18.4102 46.6852C18.385 46.6557 18.3611 46.6263 18.3373 46.5954C18.3836 46.6543 18.3373 46.5926 18.3247 46.5772C18.2461 46.486 18.1648 46.4706 18.0498 46.4383C17.8745 46.3907 17.6992 46.3374 17.5267 46.2799C17.2251 46.1789 16.9278 46.0639 16.6389 45.9321C14.6952 45.0499 13.102 43.5367 11.9422 41.7598C11.5888 41.2199 11.2718 40.6547 11.0039 40.0671C10.9843 40.025 10.9661 39.9815 10.9464 39.9394C10.938 39.9184 10.8819 39.7894 10.9128 39.8623C10.8931 39.8146 10.8735 39.7669 10.8539 39.7179C10.7711 39.5117 10.4963 39.4233 10.3139 39.3098C9.47669 38.7937 8.6801 38.2074 7.88773 37.6268C7.25663 37.1654 6.63114 36.697 6.00986 36.223C5.9748 36.1963 5.93974 36.1697 5.90608 36.1431C5.69151 35.979 5.48114 36.3436 5.69431 36.5063C6.93547 37.4585 8.19065 38.401 9.48791 39.2747C9.82589 39.5019 10.1667 39.7347 10.5313 39.9184L10.4346 39.7922C10.6954 40.5018 11.0755 41.1792 11.4794 41.8145C12.3783 43.2338 13.5339 44.5002 14.9266 45.4482C15.8872 46.1032 16.9601 46.5884 18.0848 46.8815L17.9586 46.7847C18.5336 47.6192 19.5798 48.1914 20.5994 48.1072C21.058 48.0694 21.4956 47.9221 21.8995 47.7033C22.0243 47.636 22.1463 47.5603 22.2641 47.4803C22.323 47.4397 22.3819 47.399 22.4394 47.3569C22.4759 47.3303 22.546 47.2532 22.5923 47.2503C22.6918 47.2475 22.7101 47.4495 22.7325 47.5238C22.8475 47.8927 23.0228 48.4887 23.4379 48.6247C23.7072 48.7131 23.933 48.5294 24.0817 48.3232C24.3818 47.9067 24.522 47.3597 24.6553 46.8731C24.7268 46.6108 24.3201 46.5 24.25 46.7609V46.7651Z" fill="#212121"/>
<path d="M25.4974 38.7392C25.8158 37.7168 25.6615 36.672 24.9547 35.8529C24.4456 35.2625 23.7416 34.8572 23.0235 34.5753C22.8678 34.5136 22.708 34.4561 22.5467 34.414C22.2844 34.3453 22.1722 34.752 22.4345 34.8193C22.8496 34.9273 23.196 35.0858 23.5691 35.292C24.2408 35.6664 24.8789 36.212 25.1286 36.9637C25.3109 37.5106 25.2618 38.0828 25.0921 38.627C25.0108 38.8864 25.4175 38.9972 25.4974 38.7392Z" fill="#212121"/>
<path d="M20.4199 45.3164C20.7144 45.5057 21.03 45.667 21.3441 45.8198C22.1519 46.2125 22.9948 46.5351 23.8559 46.7875C24.7843 47.0582 25.7338 47.2026 26.6818 47.3737C27.1923 47.4663 27.7168 47.4873 28.2329 47.4214C28.3956 47.4004 28.5569 47.3737 28.7153 47.3359C28.8654 47.3008 29 47.2475 29.1501 47.3106C29.2679 47.3597 29.338 47.4635 29.418 47.5575C29.7153 47.9067 30.3814 48.6261 30.8653 48.1605C31.171 47.8674 31.171 47.3218 31.171 46.9334C31.171 46.5197 31.1303 46.1059 31.0785 45.695C31.0434 45.4131 31.0027 45.1326 30.9564 44.8522C30.9158 44.6053 30.8975 44.3319 30.8232 44.0934C30.7447 43.841 30.5413 43.6419 30.3352 43.489C29.756 43.0584 28.9818 42.9224 28.282 42.8565C27.9875 42.8284 27.6916 42.8186 27.3957 42.8186L27.606 43.029C27.5022 41.7317 27.1488 40.3756 26.5303 39.2312C26.2793 38.7684 25.968 38.3308 25.5809 37.9718C25.3832 37.7881 25.0844 38.0854 25.2836 38.2691C25.9399 38.8778 26.3536 39.7038 26.6425 40.5397C26.8768 41.2198 27.038 41.9267 27.1404 42.6391C27.1544 42.7359 27.1741 42.8916 27.1853 43.029C27.1937 43.1426 27.2736 43.2394 27.3957 43.2394C28.2077 43.2422 29.1122 43.2898 29.8471 43.6783C30.0378 43.7793 30.1571 43.8592 30.2959 44.0135C30.3113 44.0303 30.3632 44.099 30.3281 44.05C30.345 44.0738 30.3632 44.0976 30.3786 44.1229C30.3899 44.1397 30.3983 44.1594 30.4081 44.1762C30.4361 44.2225 30.4109 44.1832 30.4081 44.1748C30.5722 44.9461 30.6914 45.7399 30.7377 46.5281C30.7545 46.8226 30.7629 47.1227 30.7264 47.4158C30.7208 47.4621 30.697 47.5897 30.6731 47.6683C30.6675 47.6893 30.6269 47.7875 30.6507 47.737C30.6367 47.7678 30.6199 47.7959 30.603 47.8253C30.5736 47.8758 30.6227 47.8057 30.5778 47.8548C30.5329 47.9039 30.603 47.8534 30.5525 47.8744C30.5063 47.894 30.5778 47.8898 30.5329 47.8814C30.5287 47.8814 30.4754 47.8912 30.5245 47.8842C30.5736 47.8772 30.5133 47.887 30.5049 47.8842C30.4978 47.8814 30.4838 47.8842 30.4754 47.8828C30.4488 47.88 30.5301 47.8968 30.4824 47.8828C30.4586 47.8758 30.4347 47.8688 30.4109 47.8632C30.3492 47.8464 30.4347 47.88 30.3772 47.8492C30.3492 47.8337 30.3197 47.8183 30.2917 47.8015C30.2664 47.7861 30.2412 47.7678 30.216 47.751C30.2047 47.744 30.1949 47.7356 30.1837 47.7272C30.1655 47.7145 30.2117 47.751 30.1669 47.7145C30.1136 47.6711 30.0631 47.6262 30.0126 47.5785C29.913 47.4831 29.8191 47.3807 29.7293 47.277C29.4909 46.9993 29.2118 46.8001 28.8233 46.8759C28.5092 46.9362 28.2105 47.0147 27.8893 47.0329C27.6271 47.047 27.3634 47.04 27.1025 47.0133C26.8263 46.9853 26.5612 46.9081 26.2877 46.8731C25.7043 46.7973 25.1265 46.6851 24.5571 46.5421C23.2038 46.2027 21.8925 45.6922 20.6864 44.9882C20.6682 44.977 20.6499 44.9658 20.6317 44.9531C20.4031 44.8059 20.1927 45.1705 20.4199 45.3164Z" fill="#212121"/>
<path d="M10.5272 35.5617C10.7138 35.9908 10.9396 36.4073 11.1752 36.8112C11.666 37.6555 12.2368 38.4689 12.924 39.1645C13.283 39.5277 13.6897 39.8938 14.1413 40.1378C14.5929 40.3818 15.1861 40.2963 15.5241 39.898C15.6728 39.7227 15.7457 39.5067 15.8369 39.2991C15.928 39.0916 16.0164 38.9009 16.1131 38.7059C16.3347 38.2543 16.5802 37.8126 16.8564 37.3918C17.4342 36.5139 18.2294 35.5715 19.3205 35.3779C19.587 35.3317 19.4734 34.9249 19.2083 34.9726C18.2631 35.1395 17.5058 35.8351 16.9336 36.5658C16.3614 37.2965 15.8817 38.1646 15.4961 39.0355C15.4147 39.2206 15.353 39.4422 15.2268 39.6007C15.0866 39.776 14.8608 39.8713 14.6378 39.8559C14.398 39.8405 14.1974 39.6834 14.0081 39.5488C13.8089 39.4057 13.621 39.2473 13.4415 39.079C12.7319 38.417 12.1541 37.6232 11.6548 36.7944C11.3743 36.3288 11.1078 35.8477 10.8905 35.3485C10.7825 35.1003 10.4207 35.3148 10.5272 35.5603V35.5617Z" fill="#212121"/>
<path d="M25.2949 33.9141C25.2949 33.9141 29.6972 36.5969 34.7614 34.3194C34.9844 34.2184 35.1891 34.4905 35.0334 34.6798C33.7811 36.193 31.5133 39.2083 32.0266 40.6458C32.0266 40.6458 32.2482 42.6877 29.362 43.0299" stroke="#212121" stroke-width="0.420731" stroke-miterlimit="10"/>
<path d="M4.95911 30.9678L8.18471 32.6507C8.18471 32.6507 8.32496 35.8763 5.2396 36.2971L2.85546 32.6507C2.85546 32.6507 0.143143 32.2328 0.656435 30.2301C0.858386 29.4433 1.42357 28.7856 2.18229 28.4939C3.05741 28.1573 4.28594 28.2751 4.95911 30.9678Z" stroke="#212121" stroke-width="0.420731" stroke-miterlimit="10"/>
<path d="M1.9043 28.9437C1.9043 28.9437 2.60552 28.2425 3.58722 28.8035L4.70917 31.7486L7.79453 33.8522C7.79453 33.8522 7.51404 34.9742 7.09331 34.8339L3.58722 32.8705L1.9043 28.9437Z" fill="#F6343C"/>
<path d="M19.2949 9.44531V10.0063L20.8376 10.5673L21.1181 9.58556L19.2949 9.44531Z" fill="#AB8872"/>
</svg>
