<svg width="70" height="47" viewBox="0 0 70 47" fill="none" xmlns="http://www.w3.org/2000/svg">
<path d="M0.767578 19.586H6.40026V24.1138H10.2998C10.1915 22.7056 10.0182 21.2758 9.7582 19.8026L15.1742 19.586C16.0625 23.4205 16.1491 29.4432 15.4125 33.646H15.9108V38.4121H7.65678C2.41405 38.4121 0.767578 36.6357 0.767578 31.6529L0.767578 19.586ZM8.39336 33.646H9.90985C10.1482 31.9779 10.3215 30.3747 10.3865 28.7716H6.40026V31.6529C6.40026 33.2127 6.76855 33.646 8.39336 33.646ZM23.0816 19.1094V39.2123H16.9074V19.1094H23.0816Z" fill="#0099FF"/>
<path d="M49.0791 19.7525H54.9284C54.3435 20.5757 53.8669 21.3123 53.4986 22.0922C54.5168 21.8323 55.5134 21.7023 56.5749 21.7023C60.3445 21.7023 61.731 23.0238 61.731 26.5984V31.7978L55.99 32.0144V28.0065C55.99 27.1183 55.535 26.7067 54.3218 26.7067C53.7802 26.7067 53.0436 26.8367 52.2637 27.1183C52.1554 28.4398 52.1121 30.043 52.1121 32.0144L46.3711 31.7978C46.3711 24.172 47.0643 22.0489 49.0791 19.7525ZM58.0697 32.6427C65.4355 32.6427 68.5768 33.9425 68.5768 36.3472C68.5768 38.7519 65.4355 40.0085 58.0697 40.0085C50.7039 40.0085 47.5626 38.7303 47.5626 36.3472C47.5626 33.9642 50.7039 32.6427 58.0697 32.6427ZM58.0697 36.7155C61.0161 36.7155 62.5109 36.6072 62.5109 36.2172C62.5109 35.849 61.0161 35.719 58.0697 35.719C55.1234 35.719 53.6286 35.849 53.6286 36.2172C53.6286 36.6072 55.1234 36.7155 58.0697 36.7155ZM68.2519 19.6875V23.8254H69.7684V28.9381H68.2519V32.3827H62.5109V19.6875H68.2519Z" fill="#0099FF"/>
<path d="M51.006 33.3037C51.2171 33.2081 51.411 33.4656 51.2636 33.6449C50.0779 35.0776 47.9309 37.9323 48.4169 39.2933C48.4169 39.2933 48.6266 41.2265 45.8941 41.5505L45.8702 41.6315C45.432 41.5053 44.8385 41.4177 44.0352 41.4177C44.0352 41.4177 43.9755 40.6582 43.7258 39.7102C45.914 39.7234 46.0282 38.0159 45.9565 37.198C45.9339 36.9391 45.7002 36.7506 45.4426 36.7838C43.6329 37.0068 43.6116 39.3079 43.6116 39.3079H43.6103C43.3355 38.4116 42.8893 37.4224 42.1763 36.7705H42.167C42.4923 34.5372 40.028 33.6476 39.4902 33.4803C40.3241 33.3276 41.1938 33.1523 42.1006 32.9531C42.6145 33.2439 46.5381 35.3126 51.006 33.3037Z" fill="#F6343C"/>
<path d="M41.262 44.9216L41.2421 44.9999C40.5211 47.6754 39.9608 46.2029 39.7443 45.4062C39.6965 45.2256 39.4801 45.1513 39.3327 45.2655C36.8564 47.1907 35.2671 44.8671 35.2671 44.8671C30.0888 43.5394 28.1635 38.2947 28.1635 38.2947C27.1013 37.7635 23.584 35.0642 23.584 35.0642C24.6196 34.7707 25.1813 34.0962 25.4854 33.4297C26.2807 33.7165 27.1982 33.9422 28.2524 34.0922L28.2299 34.2449C28.2299 34.2449 29.5377 37.2643 31.5413 38.4832C31.9928 38.758 32.581 38.5748 32.7828 38.0862C33.3272 36.769 34.5793 34.2715 36.3293 33.9794V33.9701C37.3185 33.8453 38.3701 33.682 39.4854 33.4775C40.0232 33.6448 42.4875 34.5344 42.1622 36.7664H42.1715C42.8845 37.4196 43.3307 38.4088 43.6055 39.3051C43.648 39.4419 43.6865 39.576 43.721 39.7074C43.9706 40.6554 44.0304 41.4149 44.0304 41.4149C44.8337 41.4149 45.4272 41.5026 45.8654 41.6287C46.9502 41.9381 47.0843 42.4771 47.0843 42.4771C48.0443 47.5944 46.6063 46.2055 46.0021 45.4593C45.8548 45.2761 45.6118 45.1951 45.3847 45.2588C44.1924 45.5934 43.1009 45.2655 43.1009 45.2655C42.4437 45.1871 41.8276 45.0663 41.262 44.9216ZM41.5076 38.4938C43.1009 35.971 40.4454 35.1744 40.4454 35.1744L38.0554 35.971C35.5897 35.3072 35.3587 36.7425 35.4291 37.6175C35.4636 38.0543 35.615 38.4779 35.8938 38.8151C36.9454 40.0818 38.321 38.4938 38.321 38.4938H41.5076Z" fill="#0099FF"/>
<path d="M42.0982 32.9534C41.1913 33.1525 40.3216 33.3278 39.4877 33.4805C38.3724 33.685 37.3208 33.8483 36.3303 33.9731C33.0042 34.3953 30.3566 34.3953 28.2548 34.0952C27.2005 33.9452 26.283 33.7195 25.4877 33.4327C25.8794 32.5723 25.8422 31.7252 25.8422 31.7252L22.7883 30.1318C22.2652 28.0379 21.3862 27.5891 20.6307 27.6715C20.2895 24.8353 21.4605 22.1652 21.4605 22.1652C21.4605 22.1652 21.4366 20.1602 22.3701 17.7703C22.9304 16.3349 23.8359 14.7615 25.2991 13.3979H25.3005C26.3056 12.4605 27.575 11.624 29.1776 10.9999H29.1842L31.2848 10.3573H31.2874C32.1027 10.1687 32.9856 10.0307 33.9416 9.94966C33.9416 9.94966 34.7834 9.84476 36.1497 10.0426L36.0993 11.2071C36.0807 11.6266 36.3768 11.9931 36.791 12.0621C36.8455 12.0714 36.8986 12.0754 36.9517 12.0754C37.3832 12.0754 37.7736 11.7873 37.8904 11.3571L38.1281 10.4861C39.5767 10.9216 41.2948 11.6837 43.1033 13.0035L43.09 13.0792C43.7366 13.1921 44.6302 13.2492 45.7283 13.0792C46.1837 13.0089 46.6577 13.1084 47.0189 13.3952C47.5832 13.844 47.9005 14.7575 45.95 16.5142C45.9089 16.5514 45.8677 16.5859 45.8252 16.6204L45.881 16.6908C45.881 16.6908 52.1321 27.078 42.8377 32.7874C42.5881 32.8445 42.3411 32.9002 42.0982 32.9534ZM34.9375 23.8581C34.9375 23.4 34.5657 23.0282 34.1076 23.0282C33.6495 23.0282 33.2777 23.4 33.2777 23.8581C33.2777 24.3162 33.6495 24.688 34.1076 24.688C34.5657 24.688 34.9375 24.3162 34.9375 23.8581ZM29.4936 23.8581C29.4936 23.4 29.1218 23.0282 28.6637 23.0282C28.2056 23.0282 27.8339 23.4 27.8339 23.8581C27.8339 24.3162 28.2056 24.688 28.6637 24.688C29.1218 24.688 29.4936 24.3162 29.4936 23.8581Z" fill="#FFD9B5"/>
<path d="M45.9516 37.1993C46.0233 38.0172 45.9092 39.7247 43.721 39.7115C43.6865 39.58 43.648 39.4459 43.6055 39.3091H43.6068C43.6068 39.3091 43.628 37.0081 45.4378 36.785C45.6954 36.7518 45.9291 36.9404 45.9516 37.1993Z" fill="#FFD9B5"/>
<path d="M40.4465 35.1719C40.4465 35.1719 43.1021 35.9685 41.5087 38.4913H38.3221C38.3221 38.4913 36.9465 40.0793 35.8949 38.8126C35.6161 38.4754 35.4647 38.0518 35.4302 37.615C35.3598 36.74 35.5908 35.3047 38.0565 35.9685L40.4465 35.1719Z" fill="#F6343C"/>
<path d="M40.0902 1.57678C40.8006 1.72682 41.26 2.42124 41.1166 3.13426L40.7023 5.20559C40.5589 5.92391 39.8712 6.39926 39.1475 6.27843L38.8514 6.2293L38.5859 7.4243L39.3932 7.53982C39.8619 7.60753 40.1885 8.00852 40.1885 8.45598C40.1885 8.53963 40.1765 8.62594 40.1526 8.71091C40.0172 9.18626 39.5432 9.48102 39.0572 9.39339L38.4531 9.28318L38.1251 10.4835C37.3882 10.2618 36.7203 10.125 36.1467 10.04L36.1959 8.88485L35.6993 8.84369C35.1589 8.79855 34.7539 8.34578 34.7539 7.81865C34.7539 7.7735 34.7566 7.72703 34.7632 7.68056C34.8216 7.24638 35.2213 6.94365 35.6541 7.00605L36.727 7.15874L36.9925 5.96375L36.3738 5.83097C35.6953 5.68624 35.2731 5.00775 35.4417 4.33457L36.0352 1.96183C36.1985 1.30459 36.8531 0.895631 37.5157 1.03505L40.0902 1.57678ZM39.2219 3.81939C39.3095 3.46753 39.0878 3.11301 38.7332 3.036L38.0999 2.90057C37.7719 2.8302 37.444 3.01741 37.3378 3.33608L37.2156 3.70255C37.0974 4.05706 37.3165 4.43548 37.6816 4.50851L38.3469 4.64128C38.704 4.71298 39.0532 4.49125 39.1422 4.13806L39.2219 3.81939Z" fill="#AB8872"/>
<path d="M38.1293 10.4825L37.8916 11.3536C37.7748 11.7838 37.3844 12.0719 36.9529 12.0719C36.8998 12.0719 36.8466 12.0679 36.7922 12.0586C36.3779 11.9896 36.0818 11.6231 36.1004 11.2035L36.1509 10.0391C36.7245 10.124 37.3924 10.2608 38.1293 10.4825Z" fill="#AB8872"/>
<path d="M36.3266 33.9688V33.978C34.5779 34.2702 33.3258 36.7677 32.7815 38.0849C32.5796 38.5735 31.9914 38.7567 31.54 38.4819C29.5364 37.263 28.2285 34.2436 28.2285 34.2436L28.2511 34.0909C30.353 34.391 33.0005 34.391 36.3266 33.9688Z" fill="#F6343C"/>
<path d="M34.1072 24.6832C34.5655 24.6832 34.9371 24.3116 34.9371 23.8533C34.9371 23.395 34.5655 23.0234 34.1072 23.0234C33.6489 23.0234 33.2773 23.395 33.2773 23.8533C33.2773 24.3116 33.6489 24.6832 34.1072 24.6832Z" fill="#212121"/>
<path d="M32.5447 7.40862C32.6191 7.96894 32.2314 8.48677 31.6724 8.57308L30.9527 8.68328L31.286 10.351H31.2833C30.5252 10.5262 29.8268 10.7413 29.1828 10.9936H29.1762L28.8283 9.08162L27.6625 9.23697C27.1991 9.29937 26.7689 8.98734 26.6826 8.52793L26.6069 8.12031C26.5153 7.63169 26.8499 7.16431 27.3425 7.09394L28.2972 6.95718L28.0316 4.96551L27.863 5.27489C27.6665 5.63604 27.2974 5.83122 26.9229 5.83122C26.6813 5.83122 26.4356 5.75023 26.2338 5.57895C25.8195 5.22841 25.7319 4.6256 26.0293 4.1715L27.6187 1.74964C27.9878 1.18799 28.7526 1.04858 29.297 1.44426L31.9167 3.34961C32.1756 3.53816 32.3137 3.83159 32.3137 4.13034C32.3137 4.31889 32.2579 4.51009 32.1424 4.67739C31.7932 5.18194 31.0802 5.26559 30.6234 4.85531L30.1561 4.4344L30.5544 6.55884L31.4241 6.49644C31.4493 6.49644 31.4745 6.49378 31.4998 6.49378C32.0242 6.49378 32.4744 6.88149 32.5447 7.40862Z" fill="#AB8872"/>
<path d="M28.6638 24.6832C29.1222 24.6832 29.4937 24.3116 29.4937 23.8533C29.4937 23.395 29.1222 23.0234 28.6638 23.0234C28.2055 23.0234 27.834 23.395 27.834 23.8533C27.834 24.3116 28.2055 24.6832 28.6638 24.6832Z" fill="#212121"/>
<path d="M25.8404 31.7191C25.8404 31.7191 25.8776 32.5662 25.4859 33.4266C22.0855 32.2037 20.8945 29.8841 20.6289 27.6654C21.3844 27.583 22.2634 28.0318 22.7865 30.1257L25.8404 31.7191Z" fill="#F6343C"/>
<path d="M25.4865 33.4331C25.1825 34.0996 24.6208 34.7741 23.5851 35.0676C23.4205 35.1141 23.2426 35.1512 23.0527 35.1778L20.7955 31.7256C20.7955 31.7256 18.2276 31.3299 18.7135 29.4338C18.9047 28.6889 19.4412 28.0662 20.1582 27.79C20.3069 27.733 20.4649 27.6905 20.6295 27.6719C20.8951 29.8906 22.0861 32.2102 25.4865 33.4331Z" fill="#F6343C"/>
<path d="M25.2981 13.3984C23.8349 14.7621 22.9294 16.3355 22.369 17.7708C20.1583 16.2146 20.3176 15.1232 20.7717 14.5124C21.0452 14.1433 21.4927 13.9481 21.9534 13.9508C23.6915 13.9588 25.2052 13.4316 25.2981 13.3984Z" fill="#FFD9B5"/>
<path d="M36.6635 27.9364C37.8368 27.9364 38.7879 26.9852 38.7879 25.8119C38.7879 24.6386 37.8368 23.6875 36.6635 23.6875C35.4902 23.6875 34.5391 24.6386 34.5391 25.8119C34.5391 26.9852 35.4902 27.9364 36.6635 27.9364Z" fill="#FFB9AF"/>
<path d="M26.5717 27.9364C27.745 27.9364 28.6961 26.9852 28.6961 25.8119C28.6961 24.6386 27.745 23.6875 26.5717 23.6875C25.3984 23.6875 24.4473 24.6386 24.4473 25.8119C24.4473 26.9852 25.3984 27.9364 26.5717 27.9364Z" fill="#FFB9AF"/>
<path d="M25.578 25.281C25.8347 25.281 26.0427 25.0729 26.0427 24.8163C26.0427 24.5596 25.8347 24.3516 25.578 24.3516C25.3213 24.3516 25.1133 24.5596 25.1133 24.8163C25.1133 25.0729 25.3213 25.281 25.578 25.281Z" fill="white"/>
<path d="M35.8007 25.281C36.0573 25.281 36.2654 25.0729 36.2654 24.8163C36.2654 24.5596 36.0573 24.3516 35.8007 24.3516C35.544 24.3516 35.3359 24.5596 35.3359 24.8163C35.3359 25.0729 35.544 25.281 35.8007 25.281Z" fill="white"/>
<path d="M32.3323 35.1762C32.1159 34.9147 31.7534 34.8217 31.4254 34.8377C31.2409 34.847 31.047 34.8841 30.9049 35.0103C30.7629 35.1364 30.7137 35.3329 30.7536 35.5175C30.8425 35.9317 31.2767 36.0526 31.6352 36.1203C31.7242 36.1376 31.8224 36.1508 31.9061 36.188C31.9645 36.2146 31.9924 36.2464 32.0083 36.2929C32.0402 36.3872 32.0163 36.4961 31.9273 36.5731C31.6883 36.7815 31.2847 36.67 31.1506 36.3991C31.1028 36.3022 30.966 36.2756 30.8784 36.3274C30.7801 36.3845 30.7589 36.5027 30.8067 36.5996C30.962 36.917 31.3365 37.1042 31.6843 37.0736C32.0548 37.0404 32.3907 36.7988 32.4173 36.4071C32.4292 36.2385 32.3668 36.0579 32.2433 35.941C32.0946 35.799 31.8835 35.7631 31.6896 35.7273C31.5316 35.6981 31.3471 35.6715 31.2236 35.56C31.1479 35.4923 31.0921 35.3595 31.1904 35.2931C31.3072 35.2134 31.5104 35.224 31.6432 35.2426C31.8052 35.2652 31.9486 35.3303 32.0535 35.4577C32.1225 35.5401 32.2646 35.5294 32.3349 35.4577C32.4173 35.3754 32.404 35.2586 32.3349 35.1762H32.3323Z" fill="white"/>
<path d="M45.1956 41.4857C45.1956 41.4857 45.165 44.355 43.7695 45.3721L45.6815 45.2765L46.9004 46.2883L47.4448 45.8567L47.4196 43.6008L46.9562 42.1987L45.1956 41.4844V41.4857Z" fill="#F6343C"/>
<path d="M38.8788 44.1498C38.8788 44.1498 39.4325 45.2107 38.4473 45.7989L39.6091 45.2359L40.3208 46.5265L40.7536 46.3207L41.2449 44.9916L38.8775 44.1484L38.8788 44.1498Z" fill="#F6343C"/>
<path d="M45.1956 41.4844C45.1956 41.4844 45.0986 44.4201 43.7695 45.3708" stroke="#212121" stroke-width="0.398333" stroke-miterlimit="10"/>
<path d="M38.8788 44.1562C38.8788 44.1562 39.3661 45.4163 38.4473 45.8053" stroke="#212121" stroke-width="0.398333" stroke-miterlimit="10"/>
<path d="M20.5675 14.8672C20.5675 14.8672 22.2339 16.7845 23.0757 16.1857L22.4184 17.9091C22.4184 17.9091 20.2741 16.0051 20.5688 14.8672H20.5675Z" fill="white"/>
<path d="M47.4855 14.181C47.4855 14.181 44.6321 17.0477 41.9766 16.6493C41.9766 16.6493 43.4358 17.6093 44.9641 17.1287C44.9641 17.1287 47.0009 16.0704 47.2107 15.0985L47.4868 14.1797L47.4855 14.181Z" fill="white"/>
<path d="M44.0987 41.2125C41.1776 43.2042 31.7013 42.9586 31.7013 42.9586L30.0801 41.7383C30.0801 41.7383 38.1423 42.6824 43.8757 40.1875L44.0987 41.2112V41.2125Z" fill="#FEDB0E"/>
<path d="M30.4902 41.9415C30.4902 41.9415 38.1435 42.6811 43.8769 40.1875" stroke="#212121" stroke-width="0.398333" stroke-miterlimit="10"/>
<path d="M31.6855 43.0073C31.6855 43.0073 41.1127 43.1401 44.0339 41.1484" stroke="#212121" stroke-width="0.398333" stroke-miterlimit="10"/>
<path d="M21.6953 22.1556C21.6927 21.9776 21.7046 21.7984 21.7179 21.6205C21.7325 21.4173 21.7537 21.2128 21.779 21.011C21.7829 20.9818 21.7869 20.9539 21.7896 20.9247C21.7909 20.9128 21.7843 20.9606 21.7896 20.9194C21.7922 20.9021 21.7949 20.8849 21.7962 20.8676C21.8055 20.8026 21.8148 20.7388 21.8254 20.6738C21.8467 20.5344 21.8706 20.3963 21.8971 20.2568C22.0246 19.581 22.2012 18.9158 22.4282 18.2665C22.7018 17.4831 23.047 16.7329 23.4732 16.0159C23.9578 15.202 24.5394 14.4492 25.2113 13.78C25.9893 13.0072 26.8803 12.3566 27.8442 11.8361C29.006 11.2094 30.2634 10.7779 31.5514 10.4964C32.4622 10.2972 33.4023 10.1445 34.3357 10.114C35.2692 10.0834 36.1906 10.2016 37.0922 10.4021C38.736 10.7672 40.3014 11.4298 41.7394 12.3008C42.1829 12.5704 42.6144 12.8585 43.034 13.1639C43.2411 13.3152 43.4403 12.97 43.2345 12.82C41.7128 11.7139 40.0239 10.8296 38.2208 10.2853C37.1161 9.95199 35.9596 9.73954 34.8044 9.71299C34.0675 9.69573 33.3293 9.79 32.6017 9.89888C31.1942 10.1113 29.812 10.4844 28.5108 11.0647C27.4393 11.5413 26.4355 12.1654 25.5445 12.9289C24.7731 13.5888 24.0959 14.3536 23.5237 15.1914C23.0204 15.9296 22.6062 16.725 22.2702 17.5522C21.9927 18.2373 21.7723 18.9463 21.6103 19.6686C21.4882 20.213 21.3966 20.7654 21.3408 21.3204C21.3142 21.5833 21.2864 21.8528 21.2917 22.1184C21.2917 22.1303 21.2917 22.1423 21.2917 22.1542C21.2943 22.4105 21.6927 22.4105 21.69 22.1542L21.6953 22.1556Z" fill="#212121"/>
<path d="M25.2851 13.1926C24.8801 13.3386 24.4552 13.4409 24.0343 13.5272C23.6134 13.6135 23.1686 13.6799 22.7304 13.7131C22.2923 13.7463 21.8501 13.6905 21.4372 13.8246C20.93 13.9906 20.521 14.4022 20.3803 14.92C20.2674 15.3329 20.355 15.7592 20.5422 16.1362C20.9167 16.8904 21.6323 17.4547 22.3042 17.9301C22.514 18.0788 22.7132 17.7336 22.5047 17.5862C21.9338 17.1825 21.3482 16.7152 20.9817 16.1084C20.7919 15.7924 20.6763 15.4179 20.7494 15.086C20.8383 14.6823 21.1557 14.3212 21.5912 14.1937C21.7864 14.1366 21.9762 14.1406 22.1781 14.1366C22.4025 14.1326 22.6269 14.1207 22.8499 14.1008C23.2509 14.0649 23.6492 14.0078 24.0449 13.9295C24.4977 13.8405 24.9558 13.733 25.3913 13.5763C25.6303 13.49 25.528 13.1049 25.2851 13.1926Z" fill="#212121"/>
<path d="M41.8009 16.5853C42.6043 17.5439 43.9904 17.7405 45.1164 17.2784C45.7285 17.0274 46.2158 16.5933 46.6659 16.1179C47.0058 15.7581 47.3311 15.3584 47.5276 14.899C47.7573 14.3626 47.7361 13.7664 47.3032 13.3402C46.9288 12.9724 46.3844 12.8064 45.8679 12.8556C45.5307 12.8874 45.1987 12.9445 44.8601 12.9631C44.5561 12.9791 44.2507 12.9804 43.9466 12.9631C43.466 12.9352 42.9866 12.8622 42.5233 12.7268C42.3931 12.6896 42.2657 12.6458 42.1395 12.598C42.1249 12.5927 42.0559 12.5621 42.117 12.5887C42.1037 12.5834 42.0891 12.5767 42.0758 12.5701C42.0652 12.5648 42.0532 12.5595 42.0426 12.5542C41.8142 12.44 41.6111 12.7839 41.8421 12.8981C42.2471 13.0999 42.7145 13.2034 43.1579 13.2738C43.6651 13.3548 44.179 13.3853 44.6928 13.3681C45.0049 13.3575 45.3169 13.3283 45.6263 13.2871C45.9356 13.2459 46.2012 13.2234 46.4906 13.311C46.6818 13.3694 46.8624 13.4703 47.0085 13.6084C47.0961 13.6921 47.124 13.7266 47.1798 13.8235C47.278 13.9935 47.3086 14.1993 47.2661 14.4117C47.197 14.7649 47.0005 15.0836 46.7854 15.3664C46.4415 15.8218 46.0087 16.2799 45.536 16.6012C44.4751 17.3235 42.9468 17.3355 42.0824 16.3025C41.9178 16.106 41.6376 16.3888 41.8009 16.584V16.5853Z" fill="#212121"/>
<path d="M42.9751 32.9482C44.5326 31.9882 45.9215 30.7308 46.8562 29.1428C47.617 27.8495 48.0379 26.389 48.1455 24.8952C48.2411 23.5714 48.0937 22.2357 47.7896 20.9464C47.5466 19.9161 47.2001 18.911 46.7739 17.943C46.5747 17.4902 46.3702 17.0149 46.102 16.598C46.098 16.5913 46.0941 16.586 46.0914 16.5794C45.96 16.3603 45.6147 16.5595 45.7475 16.7799C45.952 17.1198 46.1259 17.4796 46.2919 17.8394C46.6902 18.6972 47.0235 19.6107 47.2771 20.5454C47.6077 21.7657 47.7963 23.0271 47.7737 24.2924C47.7485 25.7025 47.4471 27.1086 46.819 28.3753C46.0476 29.9288 44.8313 31.2075 43.412 32.1887C43.2035 32.3334 42.9897 32.4715 42.7746 32.6043C42.5595 32.7371 42.756 33.0836 42.9751 32.9482Z" fill="#212121"/>
<path d="M21.3217 22.0536C21.2486 22.2182 21.1862 22.3882 21.1252 22.5581C20.9831 22.9578 20.8636 23.3641 20.7627 23.7757C20.6166 24.3666 20.513 24.968 20.4533 25.5748C20.3869 26.256 20.3816 26.9451 20.4599 27.6249C20.5476 28.3804 20.7335 29.1173 21.0428 29.8144C21.3721 30.5553 21.8461 31.2298 22.4277 31.7955C23.1274 32.4753 23.9692 32.9931 24.8628 33.3755C26.0565 33.8854 27.3312 34.1682 28.6165 34.3275C30.3545 34.544 32.1165 34.532 33.8612 34.4112C36.2286 34.2465 38.5814 33.8774 40.9063 33.4061C41.5809 33.2693 42.254 33.1232 42.9246 32.9692C43.1742 32.9121 43.068 32.5284 42.8183 32.5855C40.3659 33.1471 37.8857 33.6132 35.3828 33.8787C33.5239 34.0753 31.6438 34.1682 29.7756 34.0407C28.4266 33.9491 27.0762 33.738 25.7923 33.3065C25.2758 33.1325 24.8111 32.9387 24.3291 32.6811C23.9268 32.466 23.4979 32.1872 23.1779 31.9296C22.5206 31.3998 22.0227 30.8169 21.6257 30.0959C21.5341 29.9299 21.4518 29.7613 21.3748 29.5874C21.3655 29.5661 21.3562 29.5462 21.3482 29.525C21.3549 29.5396 21.3482 29.525 21.3363 29.4958C21.319 29.4519 21.3004 29.4068 21.2832 29.363C21.25 29.2767 21.2181 29.1904 21.1889 29.1027C21.0734 28.7602 20.9844 28.407 20.922 28.0511C20.9061 27.9635 20.8928 27.8759 20.8795 27.7882C20.8782 27.7763 20.8676 27.7033 20.8755 27.763C20.8729 27.7444 20.8702 27.7245 20.8676 27.7059C20.8623 27.6581 20.8556 27.6116 20.8516 27.5638C20.833 27.3899 20.8198 27.216 20.8118 27.042C20.7959 26.7035 20.7985 26.3635 20.8171 26.0263C20.8264 25.863 20.8397 25.701 20.8556 25.539C20.8636 25.462 20.8715 25.385 20.8808 25.308C20.8848 25.2695 20.8901 25.2323 20.8954 25.1951C20.8981 25.1725 20.8901 25.2363 20.8981 25.1792C20.9008 25.1579 20.9034 25.138 20.9074 25.1168C20.9486 24.826 21.0017 24.5365 21.0627 24.2497C21.161 23.7943 21.2832 23.3429 21.4305 22.9007C21.5049 22.6776 21.5859 22.4586 21.6735 22.2408C21.6762 22.2355 21.647 22.3019 21.6656 22.2581C21.7678 22.0257 21.4239 21.8226 21.3217 22.0576V22.0536Z" fill="#212121"/>
<path d="M28.701 24.6753C29.1593 24.6753 29.5308 24.3038 29.5308 23.8455C29.5308 23.3872 29.1593 23.0156 28.701 23.0156C28.2426 23.0156 27.8711 23.3872 27.8711 23.8455C27.8711 24.3038 28.2426 24.6753 28.701 24.6753Z" fill="#212121"/>
<path d="M34.1404 24.6753C34.5987 24.6753 34.9703 24.3038 34.9703 23.8455C34.9703 23.3872 34.5987 23.0156 34.1404 23.0156C33.6821 23.0156 33.3105 23.3872 33.3105 23.8455C33.3105 24.3038 33.6821 24.6753 34.1404 24.6753Z" fill="#212121"/>
<path d="M30.4183 24.3151C30.4834 24.4452 30.583 24.5687 30.6918 24.6643C30.9335 24.8767 31.2349 24.9444 31.535 24.813C31.7673 24.7107 31.9413 24.5129 32.0913 24.3151C32.1564 24.2287 32.1046 24.092 32.0196 24.0429C31.9174 23.9831 31.8125 24.0283 31.7474 24.1146C31.6877 24.1929 31.6213 24.2673 31.5483 24.3323C31.5337 24.3456 31.5191 24.3575 31.5044 24.3708C31.4739 24.396 31.4952 24.3788 31.5018 24.3735C31.4952 24.3788 31.4872 24.3841 31.4805 24.3894C31.4487 24.4106 31.4168 24.4306 31.3836 24.4492C31.365 24.4584 31.3332 24.4691 31.3703 24.4571C31.3544 24.4624 31.3398 24.4691 31.3239 24.4731C31.3106 24.477 31.2986 24.481 31.2854 24.4837C31.2774 24.485 31.2681 24.4863 31.2601 24.489C31.2376 24.497 31.2986 24.4863 31.2761 24.4877C31.2495 24.4877 31.2243 24.4916 31.1991 24.4903C31.1898 24.4903 31.1446 24.4863 31.1805 24.4903C31.2163 24.4943 31.1659 24.4863 31.1579 24.485C31.1459 24.4823 31.0942 24.4731 31.0902 24.4638C31.0942 24.4717 31.1327 24.4837 31.0981 24.4664C31.0849 24.4598 31.0729 24.4531 31.0596 24.4465C31.0384 24.4346 31.0185 24.4199 30.9972 24.4067C30.9694 24.3894 31.0291 24.4345 31.0039 24.412C30.9933 24.4027 30.9826 24.3947 30.972 24.3854C30.9375 24.3549 30.9056 24.3217 30.8764 24.2872C30.8578 24.2659 30.8339 24.2301 30.8658 24.2752C30.8552 24.2606 30.8432 24.246 30.8326 24.2301C30.8074 24.1942 30.7848 24.157 30.7649 24.1185C30.7171 24.0229 30.5816 23.9951 30.4927 24.0468C30.3944 24.1039 30.3732 24.2234 30.421 24.319L30.4183 24.3151Z" fill="#212121"/>
<path d="M29.4963 25.6445C29.9558 25.9698 30.6568 26.072 31.0645 25.6113C31.2796 25.3683 31.3871 25.0497 31.4495 24.7363C31.4708 24.6314 31.419 24.5212 31.3101 24.4907C31.2118 24.4641 31.0857 24.5239 31.0645 24.6301C31.0366 24.7761 30.9994 24.9209 30.9436 25.0589C30.9423 25.0629 30.9277 25.0948 30.941 25.0669C30.9357 25.0789 30.9303 25.0908 30.925 25.1014C30.9118 25.1293 30.8985 25.1572 30.8825 25.1838C30.8706 25.2037 30.86 25.2236 30.8467 25.2435C30.8387 25.2555 30.8321 25.2661 30.8241 25.278C30.8215 25.2833 30.7896 25.3245 30.8069 25.3033C30.8201 25.286 30.7816 25.3338 30.7737 25.3418C30.7604 25.3564 30.7471 25.3696 30.7325 25.3829C30.7152 25.3989 30.698 25.4135 30.6807 25.4281C30.7192 25.3962 30.6728 25.4334 30.6568 25.4427C30.625 25.4626 30.5904 25.4785 30.5572 25.4958C30.609 25.4706 30.5639 25.4918 30.5479 25.4971C30.5267 25.5037 30.5068 25.5104 30.4855 25.5144C30.4683 25.5184 30.451 25.521 30.4338 25.525C30.4112 25.5303 30.4802 25.5223 30.4231 25.525C30.3873 25.5276 30.3514 25.529 30.3143 25.5277C30.297 25.5277 30.2811 25.525 30.2638 25.5237C30.208 25.5197 30.2784 25.5277 30.2558 25.5237C30.22 25.517 30.1841 25.5104 30.1483 25.5024C30.0872 25.4878 30.0288 25.4679 29.9704 25.4453C29.9159 25.4254 29.9823 25.452 29.9651 25.444C29.9544 25.4387 29.9425 25.4347 29.9319 25.4294C29.9066 25.4174 29.8814 25.4055 29.8562 25.3922C29.8017 25.3643 29.7486 25.3338 29.6995 25.2993C29.6119 25.2369 29.4778 25.2833 29.4273 25.371C29.3689 25.4706 29.4114 25.5808 29.499 25.6432L29.4963 25.6445Z" fill="#212121"/>
<path d="M32.8794 25.3019C32.8396 25.3311 32.7958 25.355 32.752 25.3789C32.7081 25.4028 32.6603 25.4241 32.6125 25.4467C32.5939 25.4559 32.6617 25.4281 32.6125 25.4467C32.5979 25.452 32.5847 25.4573 32.57 25.4626C32.5395 25.4732 32.5076 25.4838 32.4758 25.4931C32.4439 25.5024 32.4134 25.5104 32.3815 25.517C32.3656 25.521 32.3483 25.5237 32.3324 25.5263C32.2793 25.5356 32.3722 25.5237 32.3191 25.5276C32.2846 25.5303 32.2514 25.533 32.2169 25.5316C32.1996 25.5316 32.1823 25.5316 32.1651 25.529C32.1558 25.529 32.1465 25.5263 32.1359 25.5263C32.0987 25.525 32.1823 25.5369 32.1425 25.5263C32.108 25.5184 32.0735 25.513 32.0389 25.5011C32.0243 25.4958 32.0084 25.4891 31.9938 25.4852C32.0482 25.4984 31.9938 25.4852 31.9739 25.4745C31.9394 25.4559 31.9075 25.4347 31.8756 25.4135C31.9221 25.4467 31.8623 25.4015 31.853 25.3922C31.8358 25.3763 31.8185 25.359 31.8026 25.3404C31.7933 25.3298 31.7482 25.2727 31.7747 25.3099C31.7588 25.2873 31.7428 25.2661 31.7282 25.2422C31.6924 25.1864 31.6618 25.1267 31.634 25.0656C31.6379 25.0735 31.6459 25.0961 31.6313 25.0576C31.6233 25.0377 31.6167 25.0191 31.6087 24.9992C31.5968 24.9647 31.5848 24.9302 31.5742 24.8943C31.5477 24.8067 31.5277 24.719 31.5105 24.6301C31.4892 24.5239 31.3631 24.4641 31.2648 24.4907C31.1546 24.5212 31.1055 24.6301 31.1254 24.7363C31.2184 25.213 31.4441 25.7494 31.9553 25.8928C32.274 25.9817 32.6112 25.8928 32.8993 25.7481C32.9604 25.7175 33.0215 25.6843 33.0773 25.6445C33.1649 25.5821 33.206 25.4706 33.149 25.3723C33.0985 25.286 32.9644 25.2382 32.8768 25.3006L32.8794 25.3019Z" fill="#212121"/>
<path d="M27.6558 1.74175L26.0664 4.16362C25.769 4.61639 25.8567 5.22052 26.2709 5.57106C26.7874 6.0079 27.5761 5.86184 27.9001 5.267L28.0687 4.95763L28.3343 6.94929L27.3796 7.08605C26.887 7.15642 26.5524 7.6238 26.644 8.11242L26.721 8.52005C26.8073 8.97946 27.2375 9.29148 27.7009 9.22908L28.8667 9.07373L29.2146 10.9871L31.3244 10.3431L30.9912 8.67539L31.7108 8.56519C32.2698 8.47888 32.6575 7.96238 32.5832 7.40073C32.5101 6.84838 32.0189 6.44872 31.4639 6.48855L30.5942 6.55096L30.1958 4.42652L30.6632 4.84742C31.12 5.2577 31.833 5.17538 32.1822 4.6695C32.4809 4.2393 32.38 3.64977 31.9565 3.34172L29.3368 1.43637C28.7924 1.04069 28.0276 1.18011 27.6584 1.74308L27.6558 1.74175Z" stroke="#212121" stroke-width="0.398333" stroke-miterlimit="10"/>
<path d="M36.0723 1.95402L35.4788 4.32676C35.3101 4.99994 35.7337 5.67843 36.4109 5.82316L37.0296 5.95593L36.7641 7.15093L35.6912 6.99824C35.2584 6.93583 34.8587 7.23989 34.8003 7.67275C34.7219 8.25697 35.1495 8.78675 35.7364 8.83588L36.2329 8.87704L36.1334 11.1967C36.1148 11.6162 36.4109 11.9827 36.8251 12.0517C37.3177 12.1341 37.7931 11.83 37.9245 11.3467L38.4902 9.27537L39.0943 9.38558C39.5803 9.47454 40.0543 9.17977 40.1897 8.70443C40.3437 8.16402 39.9866 7.61167 39.4302 7.532L38.6229 7.41649L38.8885 6.22149L39.1846 6.27062C39.9069 6.39144 40.596 5.9161 40.7394 5.19778L41.1537 3.12645C41.2958 2.41343 40.8377 1.71901 40.126 1.56897L37.5514 1.02723C36.8889 0.887818 36.2356 1.29677 36.071 1.95402H36.0723Z" stroke="#212121" stroke-width="0.398333" stroke-miterlimit="10"/>
<path d="M38.1358 2.88969L38.7705 3.02512C39.125 3.10081 39.3468 3.45665 39.2591 3.80851L39.1795 4.12718C39.0905 4.48036 38.7413 4.7021 38.3841 4.6304L37.7202 4.49762C37.3538 4.4246 37.1347 4.04618 37.2529 3.69299L37.375 3.3252C37.4812 3.00786 37.8092 2.81932 38.1372 2.88969H38.1358Z" stroke="#212121" stroke-width="0.398333" stroke-miterlimit="10"/>
<path d="M38.0933 35.9607L40.4833 35.1641C40.4833 35.1641 43.1389 35.9607 41.5456 38.4835H38.3589C38.3589 38.4835 36.9833 40.0715 35.9317 38.8048C35.6516 38.4676 35.5015 38.044 35.467 37.6072C35.398 36.7322 35.6277 35.2968 38.0933 35.9607Z" stroke="#212121" stroke-width="0.398333" stroke-miterlimit="10"/>
<path d="M43.6426 39.3024C43.6426 39.3024 43.6651 37.0014 45.4736 36.777C45.7312 36.7451 45.9662 36.9323 45.9888 37.1912C46.0591 38.0091 45.9449 39.718 43.7568 39.7034" stroke="#212121" stroke-width="0.398333" stroke-miterlimit="10"/>
<path d="M41.0875 45.0724C40.9985 45.399 40.9042 45.731 40.7608 46.039C40.7157 46.1346 40.6679 46.2316 40.6068 46.3179C40.5842 46.3497 40.5749 46.363 40.5497 46.3909C40.5391 46.4028 40.4767 46.4599 40.5046 46.4347C40.4926 46.4453 40.4767 46.452 40.4634 46.4599C40.4674 46.4573 40.5019 46.4413 40.47 46.456C40.4315 46.4732 40.482 46.4692 40.4435 46.4599C40.5231 46.4785 40.3877 46.4294 40.4554 46.4652C40.4408 46.4573 40.3864 46.4228 40.4236 46.4506C40.3253 46.375 40.2934 46.3086 40.2297 46.1864C40.1607 46.0536 40.1195 45.9434 40.0704 45.7947C40.0173 45.6354 39.992 45.4349 39.8818 45.3034C39.7915 45.1972 39.6588 45.1348 39.5194 45.1375C39.3321 45.1401 39.1994 45.2769 39.0546 45.3778C38.7798 45.569 38.4824 45.7336 38.1637 45.8359C37.3206 46.1081 36.4681 45.8677 35.8268 45.2756C35.7325 45.1879 35.6422 45.095 35.5586 44.9967C35.5347 44.9688 35.5121 44.941 35.4896 44.9117C35.5334 44.9675 35.4896 44.9091 35.4776 44.8945C35.4032 44.8082 35.3262 44.7936 35.2174 44.763C35.0514 44.7179 34.8854 44.6674 34.7221 44.613C34.4366 44.5174 34.1551 44.4085 33.8816 44.2837C32.0413 43.4485 30.533 42.0159 29.4349 40.3336C29.1003 39.8224 28.8002 39.2873 28.5466 38.731C28.528 38.6911 28.5108 38.65 28.4922 38.6101C28.4842 38.5902 28.4311 38.4681 28.4603 38.5371C28.4417 38.492 28.4231 38.4468 28.4045 38.4003C28.3262 38.2052 28.066 38.1215 27.8934 38.014C27.1007 37.5253 26.3465 36.9703 25.5963 36.4206C24.9988 35.9838 24.4066 35.5403 23.8184 35.0915C23.7852 35.0663 23.752 35.0411 23.7202 35.0158C23.517 34.8605 23.3178 35.2057 23.5197 35.3597C24.6947 36.2613 25.8831 37.1536 27.1113 37.9808C27.4313 38.1959 27.7539 38.4163 28.0992 38.5902L28.0075 38.4707C28.2545 39.1426 28.6143 39.7839 28.9967 40.3854C29.8478 41.7291 30.9419 42.9281 32.2604 43.8256C33.1699 44.4457 34.1857 44.9051 35.2506 45.1826L35.1311 45.091C35.6754 45.881 36.666 46.4228 37.6313 46.3431C38.0654 46.3072 38.4797 46.1678 38.8621 45.9607C38.9803 45.897 39.0958 45.8253 39.2073 45.7496C39.2631 45.7111 39.3189 45.6726 39.3733 45.6327C39.4078 45.6075 39.4742 45.5345 39.518 45.5318C39.6123 45.5292 39.6296 45.7204 39.6508 45.7907C39.7597 46.1399 39.9256 46.7042 40.3187 46.833C40.5736 46.9167 40.7874 46.7428 40.9281 46.5476C41.2123 46.1532 41.345 45.6354 41.4712 45.1746C41.5389 44.9264 41.1538 44.8215 41.0875 45.0684V45.0724Z" fill="#212121"/>
<path d="M42.2698 37.4772C42.5712 36.5093 42.4251 35.5201 41.7559 34.7447C41.2739 34.1857 40.6074 33.802 39.9276 33.5351C39.7802 33.4766 39.6288 33.4222 39.4761 33.3824C39.2278 33.3173 39.1216 33.7024 39.3699 33.7661C39.7629 33.8683 40.0909 34.0184 40.4441 34.2136C41.0801 34.5681 41.6842 35.0846 41.9206 35.7963C42.0932 36.3141 42.0467 36.8558 41.886 37.371C41.809 37.6167 42.1941 37.7215 42.2698 37.4772Z" fill="#212121"/>
<path d="M37.4636 43.7035C37.7424 43.8828 38.0411 44.0355 38.3386 44.1802C39.1034 44.552 39.9014 44.8574 40.7166 45.0964C41.5956 45.3526 42.4945 45.4894 43.3921 45.6514C43.8754 45.739 44.372 45.7589 44.8606 45.6965C45.0146 45.6766 45.1673 45.6514 45.3174 45.6155C45.4594 45.5823 45.5869 45.5319 45.729 45.5916C45.8405 45.6381 45.9069 45.7364 45.9826 45.8253C46.2641 46.1559 46.8947 46.8371 47.3528 46.3963C47.6423 46.1188 47.6423 45.6023 47.6423 45.2345C47.6423 44.8428 47.6038 44.4511 47.5547 44.062C47.5215 43.7952 47.483 43.5296 47.4391 43.264C47.4006 43.0304 47.3834 42.7714 47.313 42.5457C47.2386 42.3067 47.0461 42.1182 46.8509 41.9734C46.3026 41.5658 45.5696 41.437 44.9071 41.3746C44.6282 41.3481 44.3481 41.3388 44.0679 41.3388L44.2671 41.5379C44.1688 40.3097 43.8342 39.0258 43.2487 37.9423C43.011 37.5042 42.7162 37.0899 42.3498 36.75C42.1626 36.576 41.8797 36.8575 42.0683 37.0315C42.6897 37.6077 43.0814 38.3898 43.3549 39.1811C43.5766 39.8251 43.7293 40.4943 43.8263 41.1688C43.8395 41.2604 43.8581 41.4078 43.8687 41.5379C43.8767 41.6455 43.9524 41.7371 44.0679 41.7371C44.8367 41.7398 45.6931 41.7849 46.3889 42.1527C46.5694 42.2483 46.6823 42.324 46.8138 42.47C46.8284 42.486 46.8775 42.551 46.8443 42.5046C46.8602 42.5271 46.8775 42.5497 46.8921 42.5736C46.9027 42.5895 46.9107 42.6081 46.92 42.6241C46.9465 42.6679 46.9226 42.6307 46.92 42.6227C47.0753 43.353 47.1882 44.1045 47.232 44.8507C47.2479 45.1296 47.2559 45.4137 47.2214 45.6912C47.2161 45.735 47.1935 45.8559 47.1709 45.9302C47.1656 45.9501 47.1271 46.0431 47.1497 45.9953C47.1364 46.0245 47.1205 46.051 47.1045 46.0789C47.0767 46.1267 47.1231 46.0603 47.0806 46.1068C47.0381 46.1533 47.1045 46.1055 47.0567 46.1254C47.0129 46.144 47.0806 46.14 47.0381 46.132C47.0342 46.132 46.9837 46.1413 47.0302 46.1347C47.0767 46.1281 47.0196 46.1373 47.0116 46.1347C47.005 46.132 46.9917 46.1347 46.9837 46.1334C46.9585 46.1307 47.0355 46.1466 46.9903 46.1334C46.9678 46.1267 46.9452 46.1201 46.9226 46.1148C46.8642 46.0988 46.9452 46.1307 46.8908 46.1015C46.8642 46.0869 46.8363 46.0723 46.8098 46.0564C46.7859 46.0417 46.762 46.0245 46.7381 46.0086C46.7274 46.0019 46.7182 45.9939 46.7075 45.986C46.6903 45.974 46.7341 46.0086 46.6916 45.974C46.6411 45.9329 46.5933 45.8904 46.5455 45.8452C46.4513 45.7549 46.3623 45.658 46.2773 45.5598C46.0516 45.2969 45.7874 45.1083 45.4196 45.18C45.1222 45.2371 44.8394 45.3115 44.5353 45.3287C44.287 45.342 44.0374 45.3354 43.7904 45.3101C43.5288 45.2836 43.2779 45.2106 43.019 45.1774C42.4666 45.1057 41.9196 44.9994 41.3805 44.864C40.0992 44.5427 38.8577 44.0594 37.7158 43.3928C37.6986 43.3822 37.6813 43.3716 37.6641 43.3596C37.4476 43.2202 37.2485 43.5654 37.4636 43.7035Z" fill="#212121"/>
<path d="M28.0965 34.4676C28.2731 34.8739 28.4869 35.2682 28.7099 35.6506C29.1747 36.45 29.7151 37.2201 30.3657 37.8786C30.7056 38.2225 31.0906 38.5691 31.5182 38.8001C31.9457 39.0311 32.5074 38.9502 32.8274 38.5731C32.9681 38.4071 33.0372 38.2026 33.1235 38.0061C33.2098 37.8096 33.2934 37.629 33.385 37.4445C33.5948 37.0169 33.8272 36.5987 34.0888 36.2003C34.6358 35.3691 35.3887 34.4769 36.4217 34.2937C36.6739 34.2498 36.5664 33.8648 36.3154 33.9099C35.4205 34.0679 34.7035 34.7265 34.1618 35.4183C33.6201 36.11 33.166 36.9319 32.8008 37.7565C32.7238 37.9318 32.6654 38.1415 32.5459 38.2916C32.4131 38.4576 32.1993 38.5478 31.9882 38.5332C31.7612 38.5186 31.5713 38.3699 31.3921 38.2425C31.2035 38.107 31.0256 37.957 30.8556 37.7976C30.1838 37.1709 29.6367 36.4194 29.164 35.6347C28.8985 35.1939 28.6462 34.7385 28.4404 34.2658C28.3382 34.0307 27.9956 34.2339 28.0965 34.4663V34.4676Z" fill="#212121"/>
<path d="M42.0762 32.9062C42.0762 32.9062 46.2441 35.4463 51.0387 33.29C51.2498 33.1944 51.4436 33.452 51.2962 33.6312C50.1105 35.0639 47.9635 37.9186 48.4495 39.2796C48.4495 39.2796 48.6593 41.2128 45.9267 41.5368" stroke="#212121" stroke-width="0.398333" stroke-miterlimit="10"/>
<path d="M22.8243 30.118L25.8781 31.7113C25.8781 31.7113 26.0109 34.7652 23.0898 35.1635L20.8326 31.7113C20.8326 31.7113 18.2647 31.3156 18.7506 29.4196C18.9418 28.6747 19.4769 28.052 20.1953 27.7758C21.0238 27.4571 22.1869 27.5687 22.8243 30.118Z" stroke="#212121" stroke-width="0.398333" stroke-miterlimit="10"/>
<path d="M19.9355 28.1981C19.9355 28.1981 20.5994 27.5342 21.5289 28.0653L22.5911 30.8536L25.5122 32.8453C25.5122 32.8453 25.2466 33.9075 24.8483 33.7747L21.5289 31.9159L19.9355 28.1981Z" fill="#F6343C"/>
<path d="M36.4004 9.74219V10.2733L37.8609 10.8044L38.1265 9.87496L36.4004 9.74219Z" fill="#AB8872"/>
<path d="M19.4947 28.422C19.0166 28.7296 18.7148 29.2683 18.709 29.8388C18.709 29.9515 18.8086 30.0612 18.9256 30.0555C19.0426 30.0497 19.1408 29.9601 19.1423 29.8388C19.1423 29.7825 19.1466 29.7262 19.1524 29.6698C19.1466 29.7161 19.1524 29.6727 19.1538 29.6626C19.1567 29.6467 19.1596 29.6323 19.1625 29.6164C19.1683 29.589 19.174 29.5615 19.1813 29.5341C19.1957 29.4792 19.213 29.4258 19.2333 29.3738C19.2405 29.3564 19.2491 29.3362 19.2361 29.3651C19.2419 29.3535 19.2463 29.342 19.252 29.3304C19.265 29.3016 19.2795 29.2741 19.2954 29.2467C19.3228 29.1976 19.3531 29.1499 19.3849 29.1037C19.3921 29.0936 19.3993 29.0835 19.4066 29.0734C19.382 29.108 19.4066 29.0734 19.4138 29.0661C19.4311 29.0445 19.4499 29.0228 19.4687 29.0026C19.5091 28.9593 19.551 28.9174 19.5972 28.8784C19.6073 28.8697 19.616 28.8625 19.6261 28.8538C19.6449 28.8379 19.6015 28.8712 19.6348 28.848C19.6608 28.8293 19.6853 28.8119 19.7128 28.7946C19.8081 28.7339 19.8557 28.5996 19.7907 28.4985C19.7301 28.4032 19.5958 28.3555 19.4947 28.4205V28.422Z" fill="white"/>
<path d="M37.7381 36.598C37.2167 36.8868 36.8961 37.4703 36.9466 38.0668C36.9553 38.1794 37.0391 38.2892 37.1633 38.2834C37.273 38.2791 37.39 38.1881 37.3799 38.0668C37.3597 37.8169 37.403 37.6017 37.52 37.3966C37.5474 37.3504 37.5763 37.3042 37.6095 37.2623C37.5908 37.2869 37.611 37.2623 37.6197 37.2508C37.6283 37.2392 37.637 37.2306 37.6457 37.2204C37.663 37.2002 37.6818 37.18 37.702 37.1612C37.7236 37.1396 37.7453 37.1193 37.7684 37.0991C37.7785 37.0905 37.7886 37.0818 37.7987 37.0731C37.8103 37.063 37.8204 37.0558 37.8031 37.0702C37.8522 37.0341 37.9027 37.0024 37.9562 36.972C38.0558 36.9171 38.0963 36.7727 38.0342 36.676C37.9721 36.5792 37.8435 36.5387 37.7381 36.598Z" fill="white"/>
</svg>
