<svg width="71" height="52" viewBox="0 0 71 52" fill="none" xmlns="http://www.w3.org/2000/svg">
<path d="M0 22.3528H5.79594V26.8915H9.80852C9.69706 25.48 9.51872 24.0467 9.25122 22.5699L14.8242 22.3528C15.7382 26.1966 15.8274 32.2338 15.0695 36.4469H15.5822V41.2245H7.08889C1.6942 41.2245 0 39.4438 0 34.4489L0 22.3528ZM7.84682 36.4469H9.40726C9.65248 34.7747 9.83081 33.1677 9.89769 31.5606H5.79594V34.4489C5.79594 36.0125 6.17491 36.4469 7.84682 36.4469ZM22.9609 21.875V42.0266H16.6076V21.875H22.9609Z" fill="white"/>
<path d="M49.7103 22.5183H55.7292C55.1273 23.3435 54.6369 24.0819 54.2579 24.8637C55.3057 24.6031 56.3311 24.4728 57.4234 24.4728C61.3022 24.4728 62.7289 25.7975 62.7289 29.3807V34.5927L56.8215 34.8099V30.7923C56.8215 29.9019 56.3534 29.4893 55.105 29.4893C54.5477 29.4893 53.7898 29.6196 52.9873 29.9019C52.8758 31.2267 52.8312 32.8337 52.8312 34.8099L46.9238 34.5927C46.9238 26.9485 47.6372 24.8202 49.7103 22.5183ZM58.9616 35.4397C66.5409 35.4397 69.7732 36.7427 69.7732 39.1532C69.7732 41.5638 66.5409 42.8233 58.9616 42.8233C51.3822 42.8233 48.1499 41.5421 48.1499 39.1532C48.1499 36.7644 51.3822 35.4397 58.9616 35.4397ZM58.9616 39.5224C61.9933 39.5224 63.5314 39.4138 63.5314 39.0229C63.5314 38.6537 61.9933 38.5234 58.9616 38.5234C55.9298 38.5234 54.3917 38.6537 54.3917 39.0229C54.3917 39.4138 55.9298 39.5224 58.9616 39.5224ZM69.4388 22.4531V26.601H70.9993V31.7261H69.4388V35.1791H63.5314V22.4531H69.4388Z" fill="white"/>
<path d="M53.6891 36.3744C53.9215 36.2702 54.135 36.551 53.9727 36.7465C52.6672 38.3086 50.3033 41.4214 50.8383 42.9053C50.8383 42.9053 51.0693 45.0133 48.0607 45.3665L48.0343 45.4549C47.5519 45.3173 46.8984 45.2218 46.0139 45.2218C46.0139 45.2218 45.9482 44.3936 45.6733 43.3599C48.0826 43.3744 48.2083 41.5126 48.1294 40.6207C48.1045 40.3384 47.8472 40.1328 47.5636 40.169C45.571 40.4123 45.5476 42.9212 45.5476 42.9212H45.5461C45.2435 41.944 44.7523 40.8654 43.9672 40.1545H43.957C44.3152 37.7194 41.6018 36.7494 41.0098 36.567C41.9279 36.4005 42.8854 36.2094 43.8839 35.9922C44.4497 36.3093 48.7697 38.5649 53.6891 36.3744Z" fill="#F6343C"/>
<path d="M42.9661 49.0461L42.9442 49.1315C42.1503 52.0488 41.5334 50.4432 41.2951 49.5746C41.2425 49.3777 41.0042 49.2966 40.8419 49.4211C38.1154 51.5204 36.3655 48.9868 36.3655 48.9868C30.6639 47.539 28.5441 41.8203 28.5441 41.8203C27.3746 41.2412 23.502 38.2978 23.502 38.2978C24.6423 37.9779 25.2607 37.2424 25.5954 36.5156C26.4711 36.8283 27.4813 37.0745 28.6421 37.2381L28.6172 37.4046C28.6172 37.4046 30.0572 40.6968 32.2633 42.0259C32.7604 42.3255 33.408 42.1258 33.6302 41.593C34.2296 40.1568 35.6082 37.4335 37.535 37.115V37.1049C38.6242 36.9688 39.782 36.7907 41.01 36.5677C41.6021 36.7502 44.3155 37.7202 43.9573 40.1539H43.9675C44.7526 40.8662 45.2438 41.9448 45.5464 42.922C45.5932 43.0712 45.6356 43.2174 45.6736 43.3607C45.9484 44.3944 46.0142 45.2226 46.0142 45.2226C46.8987 45.2226 47.5522 45.3181 48.0346 45.4556C49.229 45.793 49.3766 46.3808 49.3766 46.3808C50.4336 51.9605 48.8504 50.4461 48.1852 49.6325C48.0229 49.4327 47.7554 49.3444 47.5054 49.4139C46.1926 49.7787 44.9909 49.4211 44.9909 49.4211C44.2672 49.3357 43.5889 49.2039 42.9661 49.0461ZM43.2365 42.0374C44.9909 39.2867 42.067 38.418 42.067 38.418L39.4355 39.2867C36.7207 38.5628 36.4663 40.1278 36.5438 41.0819C36.5818 41.5582 36.7485 42.0201 37.0555 42.3878C38.2134 43.769 39.7279 42.0374 39.7279 42.0374H43.2365Z" fill="#0099FF"/>
<path d="M43.8828 35.9958C42.8843 36.213 41.9268 36.4041 41.0087 36.5706C39.7807 36.7936 38.6228 36.9716 37.5322 37.1077C33.8701 37.5681 30.955 37.5681 28.6408 37.2409C27.48 37.0773 26.4698 36.8312 25.5941 36.5185C26.0254 35.5803 25.9844 34.6566 25.9844 34.6566L22.622 32.9193C22.046 30.6362 21.0782 30.1468 20.2464 30.2366C19.8706 27.1441 21.1601 24.2327 21.1601 24.2327C21.1601 24.2327 21.1338 22.0465 22.1615 19.4405C22.7784 17.8755 23.7755 16.1598 25.3865 14.673H25.388C26.4947 13.6509 27.8923 12.7388 29.6568 12.0583H29.6641L31.9769 11.3576H31.9798C32.8774 11.152 33.8496 11.0014 34.9022 10.9131C34.9022 10.9131 35.8291 10.7987 37.3334 11.0145L37.2778 12.2842C37.2574 12.7416 37.5834 13.1412 38.0395 13.2165C38.0995 13.2267 38.1579 13.231 38.2164 13.231C38.6915 13.231 39.1213 12.9168 39.25 12.4477L39.5117 11.498C41.1066 11.9729 42.9984 12.8039 44.9895 14.243L44.9749 14.3255C45.6869 14.4486 46.6707 14.5108 47.8798 14.3255C48.3812 14.2488 48.9031 14.3574 49.3008 14.6701C49.9221 15.1594 50.2715 16.1555 48.1239 18.0709C48.0786 18.1115 48.0333 18.1491 47.9865 18.1867L48.0479 18.2635C48.0479 18.2635 54.9306 29.5894 44.6971 35.8149C44.4223 35.8771 44.1504 35.9379 43.8828 35.9958ZM35.9987 26.0786C35.9987 25.5791 35.5893 25.1737 35.085 25.1737C34.5806 25.1737 34.1712 25.5791 34.1712 26.0786C34.1712 26.578 34.5806 26.9834 35.085 26.9834C35.5893 26.9834 35.9987 26.578 35.9987 26.0786ZM30.0047 26.0786C30.0047 25.5791 29.5954 25.1737 29.091 25.1737C28.5867 25.1737 28.1773 25.5791 28.1773 26.0786C28.1773 26.578 28.5867 26.9834 29.091 26.9834C29.5954 26.9834 30.0047 26.578 30.0047 26.0786Z" fill="#FFD9B5"/>
<path d="M48.1301 40.6199C48.209 41.5117 48.0833 43.3736 45.6741 43.3591C45.6361 43.2158 45.5937 43.0695 45.5469 42.9204H45.5483C45.5483 42.9204 45.5717 40.4114 47.5643 40.1682C47.848 40.132 48.1052 40.3376 48.1301 40.6199Z" fill="#FFD9B5"/>
<path d="M42.0657 38.4219C42.0657 38.4219 44.9896 39.2905 43.2353 42.0413H39.7266C39.7266 42.0413 38.2121 43.7729 37.0542 42.3917C36.7472 42.0239 36.5806 41.5621 36.5426 41.0858C36.4651 40.1317 36.7194 38.5667 39.4342 39.2905L42.0657 38.4219Z" fill="#F6343C"/>
<path d="M41.6763 1.78445C42.4584 1.94805 42.9642 2.70524 42.8063 3.48269L42.3502 5.74123C42.1923 6.52447 41.4351 7.04278 40.6383 6.91103L40.3123 6.85746L40.0199 8.16046L40.9088 8.28642C41.4248 8.36025 41.7845 8.79748 41.7845 9.28538C41.7845 9.37659 41.7713 9.4707 41.745 9.56336C41.5959 10.0817 41.074 10.4031 40.5389 10.3075L39.8737 10.1873L39.5126 11.4961C38.7012 11.2544 37.9659 11.1052 37.3343 11.0126L37.3884 9.75301L36.8417 9.70813C36.2467 9.65891 35.8008 9.16522 35.8008 8.59045C35.8008 8.54122 35.8037 8.49055 35.811 8.43988C35.8753 7.96646 36.3154 7.63636 36.792 7.70441L37.9732 7.8709L38.2656 6.5679L37.5843 6.42313C36.8373 6.26532 36.3724 5.52551 36.5581 4.79148L37.2115 2.20431C37.3914 1.48766 38.1121 1.04174 38.8416 1.19376L41.6763 1.78445ZM40.7202 4.22975C40.8167 3.84609 40.5725 3.45953 40.1822 3.37556L39.4848 3.22788C39.1237 3.15115 38.7626 3.35529 38.6457 3.70276L38.5112 4.10234C38.3811 4.4889 38.6223 4.90151 39.0243 4.98114L39.7568 5.12592C40.15 5.2041 40.5345 4.96232 40.6325 4.57721L40.7202 4.22975Z" fill="#AB8872"/>
<path d="M39.5121 11.4992L39.2504 12.4489C39.1218 12.918 38.6919 13.2322 38.2168 13.2322C38.1583 13.2322 38.0999 13.2278 38.0399 13.2177C37.5838 13.1424 37.2578 12.7428 37.2783 12.2853L37.3338 11.0156C37.9654 11.1083 38.7007 11.2574 39.5121 11.4992Z" fill="#AB8872"/>
<path d="M37.5335 37.1094V37.1195C35.6081 37.438 34.2295 40.1613 33.6301 41.5975C33.4079 42.1303 32.7603 42.3301 32.2632 42.0304C30.0572 40.7013 28.6172 37.4091 28.6172 37.4091L28.642 37.2426C30.9563 37.5698 33.8714 37.5698 37.5335 37.1094Z" fill="#F6343C"/>
<path d="M35.0856 26.9816C35.5902 26.9816 35.9993 26.5765 35.9993 26.0767C35.9993 25.577 35.5902 25.1719 35.0856 25.1719C34.581 25.1719 34.1719 25.577 34.1719 26.0767C34.1719 26.5765 34.581 26.9816 35.0856 26.9816Z" fill="#212121"/>
<path d="M33.3673 8.14774C33.4491 8.7587 33.0223 9.32333 32.4068 9.41744L31.6144 9.5376L31.9814 11.356H31.9784C31.1437 11.5471 30.3747 11.7817 29.6657 12.0567H29.6584L29.2753 9.97193L27.9918 10.1413C27.4815 10.2094 27.0079 9.86914 26.9129 9.36821L26.8295 8.92374C26.7287 8.39096 27.0971 7.88134 27.6394 7.80461L28.6906 7.65549L28.3982 5.48383L28.2125 5.82116C27.9961 6.21495 27.5897 6.42778 27.1775 6.42778C26.9114 6.42778 26.6409 6.33946 26.4187 6.1527C25.9626 5.77049 25.8661 5.1132 26.1936 4.61806L27.9435 1.97731C28.3499 1.3649 29.192 1.21289 29.7914 1.64432L32.6758 3.72188C32.9609 3.92747 33.1129 4.24743 33.1129 4.57318C33.1129 4.77876 33.0515 4.98724 32.9243 5.16966C32.5398 5.71981 31.7548 5.81102 31.2519 5.36366L30.7373 4.90472L31.1758 7.22116L32.1334 7.15311C32.1612 7.15311 32.189 7.15022 32.2167 7.15022C32.7942 7.15022 33.2898 7.57297 33.3673 8.14774Z" fill="#AB8872"/>
<path d="M29.0914 26.9816C29.5961 26.9816 30.0051 26.5765 30.0051 26.0767C30.0051 25.577 29.5961 25.1719 29.0914 25.1719C28.5868 25.1719 28.1777 25.577 28.1777 26.0767C28.1777 26.5765 28.5868 26.9816 29.0914 26.9816Z" fill="#212121"/>
<path d="M25.9861 34.6566C25.9861 34.6566 26.0271 35.5802 25.5958 36.5184C21.8518 35.185 20.5404 32.6557 20.248 30.2365C21.0799 30.1467 22.0477 30.6361 22.6237 32.9192L25.9861 34.6566Z" fill="#F6343C"/>
<path d="M25.595 36.5163C25.2602 37.2431 24.6418 37.9785 23.5015 38.2985C23.3202 38.3492 23.1243 38.3897 22.9153 38.4187L20.43 34.6544C20.43 34.6544 17.6026 34.223 18.1377 32.1556C18.3482 31.3434 18.9388 30.6644 19.7283 30.3632C19.892 30.301 20.066 30.2546 20.2473 30.2344C20.5396 32.6536 21.851 35.1829 25.595 36.5163Z" fill="#F6343C"/>
<path d="M25.3872 14.6719C23.7761 16.1587 22.7791 17.8744 22.1622 19.4394C19.7281 17.7426 19.9035 16.5525 20.4035 15.8866C20.7046 15.4841 21.1973 15.2713 21.7046 15.2742C23.6183 15.2828 25.2849 14.7081 25.3872 14.6719Z" fill="#FFD9B5"/>
<path d="M37.8996 30.5235C39.1915 30.5235 40.2387 29.4864 40.2387 28.2071C40.2387 26.9277 39.1915 25.8906 37.8996 25.8906C36.6078 25.8906 35.5605 26.9277 35.5605 28.2071C35.5605 29.4864 36.6078 30.5235 37.8996 30.5235Z" fill="#FFB9AF"/>
<path d="M26.7883 30.5235C28.0801 30.5235 29.1274 29.4864 29.1274 28.2071C29.1274 26.9277 28.0801 25.8906 26.7883 25.8906C25.4965 25.8906 24.4492 26.9277 24.4492 28.2071C24.4492 29.4864 25.4965 30.5235 26.7883 30.5235Z" fill="#FFB9AF"/>
<path d="M25.6933 27.6307C25.9759 27.6307 26.205 27.4038 26.205 27.1239C26.205 26.8441 25.9759 26.6172 25.6933 26.6172C25.4107 26.6172 25.1816 26.8441 25.1816 27.1239C25.1816 27.4038 25.4107 27.6307 25.6933 27.6307Z" fill="white"/>
<path d="M36.9492 27.6307C37.2318 27.6307 37.4609 27.4038 37.4609 27.1239C37.4609 26.8441 37.2318 26.6172 36.9492 26.6172C36.6666 26.6172 36.4375 26.8441 36.4375 27.1239C36.4375 27.4038 36.6666 27.6307 36.9492 27.6307Z" fill="white"/>
<path d="M33.1299 38.4179C32.8916 38.1327 32.4925 38.0314 32.1314 38.0488C31.9282 38.0589 31.7147 38.0994 31.5583 38.237C31.4019 38.3745 31.3478 38.5888 31.3916 38.79C31.4896 39.2417 31.9676 39.3735 32.3624 39.4473C32.4603 39.4661 32.5685 39.4806 32.6606 39.5211C32.7249 39.5501 32.7556 39.5848 32.7732 39.6355C32.8082 39.7383 32.7819 39.857 32.684 39.941C32.4208 40.1683 31.9764 40.0467 31.8288 39.7513C31.7761 39.6457 31.6255 39.6167 31.5291 39.6732C31.4209 39.7354 31.3975 39.8643 31.4501 39.97C31.6212 40.316 32.0334 40.5201 32.4164 40.4868C32.8243 40.4506 33.1942 40.1871 33.2234 39.76C33.2366 39.5762 33.1679 39.3793 33.0319 39.2519C32.8682 39.0969 32.6357 39.0579 32.4223 39.0188C32.2483 38.9869 32.0451 38.958 31.9092 38.8363C31.8258 38.7625 31.7644 38.6177 31.8726 38.5453C32.0013 38.4585 32.2249 38.4701 32.3711 38.4903C32.5495 38.5149 32.7074 38.5859 32.8229 38.7249C32.8989 38.8146 33.0553 38.8031 33.1328 38.7249C33.2234 38.6351 33.2088 38.5077 33.1328 38.4179H33.1299Z" fill="white"/>
<path d="M47.2928 45.2983C47.2928 45.2983 47.2591 48.427 45.7227 49.536L47.8278 49.4317L49.1699 50.5349L49.7693 50.0644L49.7415 47.6046L49.2313 46.0758L47.2928 45.2969V45.2983Z" fill="#F6343C"/>
<path d="M40.3365 48.2124C40.3365 48.2124 40.9461 49.3692 39.8613 50.0105L41.1405 49.3967L41.9241 50.8039L42.4007 50.5795L42.9416 49.1303L40.335 48.2109L40.3365 48.2124Z" fill="#F6343C"/>
<path d="M47.2928 45.3047C47.2928 45.3047 47.186 48.5057 45.7227 49.5423" stroke="#212121" stroke-width="0.445842" stroke-miterlimit="10"/>
<path d="M40.3365 48.2109C40.3365 48.2109 40.873 49.5849 39.8613 50.0091" stroke="#212121" stroke-width="0.445842" stroke-miterlimit="10"/>
<path d="M20.1776 16.2734C20.1776 16.2734 22.0123 18.364 22.9392 17.7111L22.2155 19.5903C22.2155 19.5903 19.8545 17.5142 20.1791 16.2734H20.1776Z" fill="white"/>
<path d="M49.8155 15.5249C49.8155 15.5249 46.6739 18.6506 43.75 18.2163C43.75 18.2163 45.3567 19.263 47.0393 18.7389C47.0393 18.7389 49.2819 17.5851 49.5129 16.5253L49.817 15.5234L49.8155 15.5249Z" fill="white"/>
<path d="M46.0874 45.0005C42.8712 47.1722 32.4374 46.9043 32.4374 46.9043L30.6523 45.5738C30.6523 45.5738 39.5292 46.6032 45.8418 43.8828L46.0874 44.999V45.0005Z" fill="#FEDB0E"/>
<path d="M31.1016 45.8031C31.1016 45.8031 39.5281 46.6095 45.8407 43.8906" stroke="#212121" stroke-width="0.445842" stroke-miterlimit="10"/>
<path d="M32.418 46.9566C32.418 46.9566 42.7977 47.1014 46.0139 44.9297" stroke="#212121" stroke-width="0.445842" stroke-miterlimit="10"/>
<path d="M21.4198 24.2256C21.4168 24.0316 21.43 23.8361 21.4446 23.6421C21.4607 23.4206 21.4841 23.1977 21.5119 22.9776C21.5162 22.9458 21.5206 22.9154 21.5236 22.8835C21.525 22.8705 21.5177 22.9226 21.5236 22.8777C21.5265 22.8589 21.5294 22.8401 21.5309 22.8213C21.5411 22.7503 21.5513 22.6808 21.563 22.6099C21.5864 22.4579 21.6127 22.3073 21.642 22.1553C21.7823 21.4184 21.9768 20.693 22.2267 19.9851C22.5279 19.1309 22.908 18.3129 23.3773 17.5311C23.9109 16.6436 24.5512 15.8227 25.2909 15.093C26.1476 14.2504 27.1286 13.541 28.19 12.9735C29.4691 12.2901 30.8536 11.8196 32.2717 11.5127C33.2745 11.2955 34.3096 11.129 35.3373 11.0957C36.3651 11.0624 37.3796 11.1913 38.3723 11.4099C40.1822 11.808 41.9058 12.5305 43.4891 13.4802C43.9773 13.7741 44.4525 14.0883 44.9144 14.4213C45.1425 14.5863 45.3618 14.2099 45.1352 14.0463C43.4598 12.8403 41.6002 11.8761 39.6149 11.2825C38.3986 10.9191 37.1253 10.6874 35.8534 10.6585C35.042 10.6397 34.2292 10.7425 33.4281 10.8612C31.8784 11.0928 30.3565 11.4996 28.9238 12.1323C27.7441 12.6521 26.6388 13.3325 25.6579 14.165C24.8085 14.8845 24.0629 15.7185 23.4328 16.632C22.8788 17.437 22.4226 18.3042 22.0528 19.2062C21.7472 19.9532 21.5046 20.7263 21.3262 21.5139C21.1917 22.1075 21.0908 22.7098 21.0294 23.3149C21.0002 23.6016 20.9695 23.8955 20.9753 24.1851C20.9753 24.1981 20.9753 24.2111 20.9753 24.2242C20.9783 24.5036 21.4168 24.5036 21.4139 24.2242L21.4198 24.2256Z" fill="#212121"/>
<path d="M25.3736 14.4515C24.9277 14.6108 24.4599 14.7223 23.9964 14.8164C23.533 14.9105 23.0433 14.9829 22.5608 15.0191C22.0784 15.0553 21.5916 14.9945 21.1369 15.1407C20.5785 15.3217 20.1282 15.7705 19.9732 16.3351C19.849 16.7854 19.9454 17.2501 20.1516 17.6613C20.5638 18.4836 21.3518 19.0989 22.0916 19.6172C22.3225 19.7794 22.5418 19.4029 22.3123 19.2422C21.6837 18.8021 21.039 18.2925 20.6355 17.6309C20.4264 17.2863 20.2992 16.878 20.3796 16.5161C20.4776 16.076 20.827 15.6822 21.3065 15.5432C21.5214 15.4809 21.7305 15.4853 21.9527 15.4809C22.1997 15.4766 22.4468 15.4635 22.6924 15.4418C23.1339 15.4027 23.5725 15.3405 24.0081 15.2551C24.5067 15.1581 25.011 15.0408 25.4905 14.87C25.7537 14.7758 25.6411 14.356 25.3736 14.4515Z" fill="#212121"/>
<path d="M43.5571 18.1548C44.4415 19.2001 45.9678 19.4144 47.2075 18.9105C47.8815 18.6369 48.418 18.1635 48.9136 17.6452C49.2878 17.2528 49.646 16.8171 49.8624 16.3161C50.1153 15.7312 50.0919 15.0812 49.6153 14.6164C49.2031 14.2154 48.6037 14.0344 48.035 14.088C47.6636 14.1228 47.2982 14.185 46.9254 14.2053C46.5906 14.2226 46.2543 14.2241 45.9196 14.2053C45.3903 14.1749 44.8626 14.0952 44.3524 13.9476C44.2091 13.907 44.0688 13.8593 43.9299 13.8071C43.9138 13.8013 43.8378 13.768 43.905 13.797C43.8904 13.7912 43.8743 13.784 43.8597 13.7767C43.848 13.7709 43.8348 13.7651 43.8231 13.7594C43.5717 13.6348 43.348 14.0098 43.6024 14.1343C44.0483 14.3544 44.5629 14.4673 45.0512 14.5441C45.6096 14.6324 46.1754 14.6657 46.7412 14.6468C47.0847 14.6353 47.4283 14.6034 47.7689 14.5585C48.1095 14.5136 48.4019 14.489 48.7206 14.5846C48.9311 14.6483 49.13 14.7583 49.2908 14.9089C49.3873 15.0001 49.418 15.0377 49.4794 15.1434C49.5875 15.3287 49.6212 15.5532 49.5744 15.7848C49.4984 16.1699 49.282 16.5174 49.0452 16.8257C48.6665 17.3223 48.1899 17.8218 47.6695 18.1722C46.5014 18.9598 44.8187 18.9728 43.867 17.8464C43.6857 17.6322 43.3773 17.9405 43.5571 18.1534V18.1548Z" fill="#212121"/>
<path d="M44.8485 35.9987C46.5634 34.9519 48.0925 33.5809 49.1217 31.8493C49.9594 30.4392 50.4229 28.8466 50.5413 27.2179C50.6465 25.7745 50.4843 24.318 50.1495 22.9122C49.8819 21.7887 49.5004 20.6928 49.0311 19.6373C48.8118 19.1436 48.5867 18.6253 48.2914 18.1707C48.287 18.1635 48.2826 18.1577 48.2797 18.1505C48.1349 17.9116 47.7548 18.1287 47.901 18.3691C48.1262 18.7397 48.3177 19.1321 48.5004 19.5244C48.939 20.4597 49.3059 21.4557 49.5852 22.475C49.9492 23.8055 50.1568 25.1809 50.1319 26.5606C50.1042 28.0981 49.7723 29.6313 49.0808 31.0125C48.2314 32.7064 46.8923 34.1006 45.3295 35.1705C45.1 35.3283 44.8646 35.4789 44.6278 35.6237C44.3909 35.7685 44.6073 36.1463 44.8485 35.9987Z" fill="#212121"/>
<path d="M21.0103 24.1174C20.9298 24.2969 20.8611 24.4822 20.7939 24.6675C20.6375 25.1033 20.5059 25.5463 20.3948 25.9951C20.234 26.6394 20.1199 27.2952 20.0541 27.9569C19.9811 28.6996 19.9752 29.451 20.0615 30.1922C20.1579 31.016 20.3626 31.8195 20.7032 32.5796C21.0658 33.3875 21.5877 34.1229 22.228 34.7397C22.9985 35.4809 23.9253 36.0456 24.9092 36.4625C26.2235 37.0185 27.6269 37.3269 29.0421 37.5006C30.9558 37.7366 32.8957 37.7236 34.8167 37.5918C37.4233 37.4123 40.0139 37.0098 42.5737 36.4958C43.3164 36.3467 44.0576 36.1875 44.7959 36.0195C45.0707 35.9573 44.9537 35.5389 44.6789 35.6011C41.9787 36.2135 39.2478 36.7217 36.4921 37.0113C34.4454 37.2255 32.3753 37.3269 30.3184 37.1879C28.833 37.088 27.3463 36.8578 25.9326 36.3873C25.3639 36.1976 24.8522 35.9862 24.3215 35.7054C23.8786 35.4708 23.4064 35.1668 23.054 34.8859C22.3304 34.3082 21.7822 33.6727 21.345 32.8865C21.2442 32.7056 21.1535 32.5217 21.0687 32.332C21.0585 32.3089 21.0483 32.2872 21.0395 32.264C21.0468 32.2799 21.0395 32.264 21.0263 32.2321C21.0073 32.1844 20.9869 32.1351 20.9679 32.0874C20.9313 31.9933 20.8962 31.8991 20.8641 31.8036C20.7369 31.4301 20.6389 31.045 20.5702 30.657C20.5527 30.5614 20.538 30.4658 20.5234 30.3703C20.522 30.3573 20.5103 30.2776 20.519 30.3428C20.5161 30.3225 20.5132 30.3008 20.5103 30.2805C20.5044 30.2284 20.4971 30.1777 20.4927 30.1256C20.4723 29.936 20.4576 29.7463 20.4489 29.5566C20.4313 29.1875 20.4343 28.8168 20.4547 28.4491C20.465 28.271 20.4796 28.0944 20.4971 27.9178C20.5059 27.8338 20.5147 27.7498 20.5249 27.6659C20.5293 27.6239 20.5351 27.5833 20.541 27.5428C20.5439 27.5182 20.5351 27.5877 20.5439 27.5254C20.5468 27.5023 20.5497 27.4805 20.5541 27.4574C20.5995 27.1403 20.6579 26.8247 20.7252 26.512C20.8334 26.0154 20.9679 25.5231 21.1301 25.041C21.212 24.7978 21.3012 24.5589 21.3977 24.3215C21.4006 24.3157 21.3684 24.3881 21.3889 24.3403C21.5015 24.0869 21.1228 23.8654 21.0103 24.1217V24.1174Z" fill="#212121"/>
<path d="M29.1325 26.9738C29.6371 26.9738 30.0462 26.5687 30.0462 26.0689C30.0462 25.5692 29.6371 25.1641 29.1325 25.1641C28.6278 25.1641 28.2188 25.5692 28.2188 26.0689C28.2188 26.5687 28.6278 26.9738 29.1325 26.9738Z" fill="#212121"/>
<path d="M35.1266 26.9738C35.6312 26.9738 36.0403 26.5687 36.0403 26.0689C36.0403 25.5692 35.6312 25.1641 35.1266 25.1641C34.622 25.1641 34.2129 25.5692 34.2129 26.0689C34.2129 26.5687 34.622 26.9738 35.1266 26.9738Z" fill="#212121"/>
<path d="M31.026 26.5765C31.0976 26.7184 31.2073 26.8531 31.3272 26.9573C31.5932 27.189 31.9251 27.2628 32.2555 27.1195C32.5113 27.008 32.7028 26.7922 32.868 26.5765C32.9397 26.4824 32.8827 26.3333 32.7891 26.2797C32.6765 26.2145 32.561 26.2638 32.4894 26.3579C32.4236 26.4433 32.3505 26.5244 32.2701 26.5953C32.254 26.6098 32.2379 26.6228 32.2219 26.6373C32.1882 26.6648 32.2116 26.646 32.2189 26.6402C32.2116 26.646 32.2029 26.6518 32.1955 26.6576C32.1605 26.6808 32.1254 26.7025 32.0888 26.7227C32.0684 26.7329 32.0333 26.7445 32.0742 26.7314C32.0567 26.7372 32.0406 26.7445 32.023 26.7488C32.0084 26.7531 31.9953 26.7575 31.9806 26.7604C31.9719 26.7618 31.9616 26.7633 31.9529 26.7662C31.928 26.7749 31.9953 26.7633 31.9704 26.7647C31.9412 26.7647 31.9134 26.7691 31.8856 26.7676C31.8754 26.7676 31.8257 26.7633 31.8652 26.7676C31.9046 26.772 31.8491 26.7633 31.8403 26.7618C31.8271 26.7589 31.7701 26.7488 31.7657 26.7387C31.7701 26.7474 31.8125 26.7604 31.7745 26.7416C31.7599 26.7343 31.7467 26.7271 31.7321 26.7198C31.7087 26.7068 31.6868 26.6909 31.6634 26.6764C31.6327 26.6576 31.6985 26.7068 31.6707 26.6822C31.659 26.6721 31.6473 26.6634 31.6356 26.6532C31.5976 26.6199 31.5625 26.5837 31.5304 26.5461C31.5099 26.5229 31.4836 26.4838 31.5187 26.5331C31.507 26.5171 31.4938 26.5012 31.4821 26.4838C31.4543 26.4448 31.4295 26.4042 31.4076 26.3622C31.3549 26.258 31.2058 26.2276 31.1079 26.284C30.9997 26.3463 30.9763 26.4766 31.0289 26.5809L31.026 26.5765Z" fill="#212121"/>
<path d="M30.008 28.0306C30.5138 28.3853 31.2857 28.4968 31.7345 27.9944C31.9714 27.7295 32.0898 27.382 32.1585 27.0403C32.1819 26.9259 32.1249 26.8058 32.005 26.7725C31.8968 26.7435 31.7579 26.8087 31.7345 26.9245C31.7038 27.0837 31.6629 27.2416 31.6015 27.3921C31.6 27.3965 31.584 27.4312 31.5986 27.4008C31.5927 27.4138 31.5869 27.4269 31.581 27.4385C31.5664 27.4689 31.5518 27.4993 31.5343 27.5282C31.5211 27.5499 31.5094 27.5716 31.4948 27.5934C31.486 27.6064 31.4787 27.618 31.4699 27.631C31.467 27.6368 31.4319 27.6817 31.4509 27.6585C31.4655 27.6397 31.4231 27.6918 31.4144 27.7005C31.3998 27.7164 31.3851 27.7309 31.3691 27.7454C31.3501 27.7628 31.331 27.7787 31.312 27.7946C31.3544 27.7599 31.3033 27.8004 31.2857 27.8105C31.2506 27.8322 31.2126 27.8496 31.1761 27.8684C31.2331 27.8409 31.1834 27.8641 31.1658 27.8699C31.1425 27.8771 31.1205 27.8844 31.0971 27.8887C31.0781 27.8931 31.0591 27.896 31.0401 27.9003C31.0153 27.9061 31.0913 27.8974 31.0284 27.9003C30.989 27.9032 30.9495 27.9046 30.9085 27.9032C30.8895 27.9032 30.872 27.9003 30.853 27.8988C30.7916 27.8945 30.8691 27.9032 30.8442 27.8988C30.8047 27.8916 30.7653 27.8844 30.7258 27.8757C30.6586 27.8598 30.5942 27.838 30.5299 27.8134C30.47 27.7917 30.5431 27.8207 30.5241 27.812C30.5124 27.8062 30.4992 27.8018 30.4875 27.7961C30.4597 27.783 30.432 27.77 30.4042 27.7555C30.3442 27.7251 30.2858 27.6918 30.2317 27.6542C30.1352 27.5861 29.9875 27.6368 29.932 27.7324C29.8677 27.8409 29.9144 27.9611 30.0109 28.0291L30.008 28.0306Z" fill="#212121"/>
<path d="M33.7368 27.6571C33.6929 27.6889 33.6447 27.715 33.5964 27.741C33.5482 27.7671 33.4955 27.7903 33.4429 27.8149C33.4224 27.825 33.497 27.7946 33.4429 27.8149C33.4268 27.8207 33.4122 27.8265 33.3961 27.8322C33.3625 27.8438 33.3274 27.8554 33.2923 27.8655C33.2572 27.8757 33.2236 27.8844 33.1885 27.8916C33.171 27.8959 33.152 27.8988 33.1344 27.9017C33.076 27.9119 33.1783 27.8988 33.1198 27.9032C33.0818 27.9061 33.0453 27.909 33.0073 27.9075C32.9883 27.9075 32.9692 27.9075 32.9502 27.9046C32.94 27.9046 32.9298 27.9017 32.9181 27.9017C32.8771 27.9003 32.9692 27.9133 32.9254 27.9017C32.8874 27.8931 32.8494 27.8873 32.8114 27.8742C32.7953 27.8684 32.7777 27.8612 32.7617 27.8569C32.8216 27.8713 32.7617 27.8569 32.7397 27.8453C32.7017 27.825 32.6666 27.8018 32.6315 27.7787C32.6827 27.8149 32.6169 27.7657 32.6067 27.7555C32.5877 27.7381 32.5687 27.7193 32.5511 27.6991C32.5409 27.6875 32.4912 27.6252 32.5204 27.6658C32.5029 27.6411 32.4853 27.618 32.4693 27.5919C32.4298 27.5311 32.3962 27.466 32.3655 27.3994C32.3699 27.408 32.3786 27.4327 32.3625 27.3907C32.3538 27.369 32.3465 27.3487 32.3377 27.327C32.3245 27.2893 32.3114 27.2517 32.2997 27.2126C32.2704 27.117 32.2485 27.0215 32.2295 26.9245C32.2061 26.8087 32.0672 26.7435 31.9591 26.7725C31.8377 26.8058 31.7836 26.9245 31.8056 27.0403C31.9079 27.5601 32.1564 28.145 32.7193 28.3013C33.0701 28.3983 33.4415 28.3013 33.7587 28.1435C33.8259 28.1102 33.8932 28.074 33.9546 28.0306C34.0511 27.9625 34.0964 27.8409 34.0335 27.7338C33.978 27.6397 33.8303 27.5876 33.7338 27.6556L33.7368 27.6571Z" fill="#212121"/>
<path d="M27.9845 1.96942L26.2346 4.61016C25.9071 5.10385 26.0036 5.76259 26.4597 6.1448C27.0284 6.62112 27.8968 6.46187 28.2535 5.81326L28.4392 5.47593L28.7316 7.6476L27.6805 7.79672C27.1381 7.87345 26.7697 8.38307 26.8705 8.91585L26.9553 9.36031C27.0504 9.86125 27.524 10.2015 28.0342 10.1334L29.3178 9.96404L29.7008 12.0503L32.0238 11.3481L31.6569 9.5297L32.4493 9.40954C33.0647 9.31543 33.4916 8.75225 33.4098 8.13984C33.3293 7.53756 32.7884 7.10178 32.1773 7.14522L31.2198 7.21326L30.7812 4.89682L31.2958 5.35577C31.7987 5.80313 32.5838 5.71337 32.9683 5.16176C33.2972 4.69268 33.1861 4.04987 32.7197 3.71399L29.8353 1.63643C29.2359 1.20499 28.3939 1.35701 27.9875 1.97086L27.9845 1.96942Z" stroke="#212121" stroke-width="0.445842" stroke-miterlimit="10"/>
<path d="M37.2506 2.19649L36.5971 4.78367C36.4114 5.51769 36.8778 6.25751 37.6234 6.41532L38.3046 6.56009L38.0122 7.86309L36.831 7.6966C36.3544 7.62855 35.9144 7.96009 35.85 8.43207C35.7638 9.06909 36.2345 9.64675 36.8807 9.70032L37.4275 9.7452L37.3178 12.2745C37.2974 12.732 37.6234 13.1316 38.0795 13.2068C38.6219 13.2966 39.1452 12.9651 39.29 12.4381L39.9128 10.1795L40.5779 10.2997C41.113 10.3967 41.6349 10.0753 41.784 9.55699C41.9536 8.96775 41.5603 8.36547 40.9478 8.2786L40.0589 8.15265L40.3513 6.84965L40.6773 6.90322C41.4726 7.03496 42.2314 6.51666 42.3893 5.73341L42.8454 3.47488C43.0018 2.69742 42.4974 1.94024 41.7138 1.77664L38.8792 1.18595C38.1497 1.03393 37.4304 1.47984 37.2491 2.19649H37.2506Z" stroke="#212121" stroke-width="0.445842" stroke-miterlimit="10"/>
<path d="M39.5252 3.21914L40.224 3.36682C40.6143 3.44934 40.8584 3.83734 40.762 4.221L40.6742 4.56847C40.5763 4.95358 40.1918 5.19536 39.7986 5.11718L39.0676 4.9724C38.6641 4.89277 38.4229 4.48016 38.553 4.09505L38.6875 3.69401C38.8044 3.34799 39.1655 3.14241 39.5266 3.21914H39.5252Z" stroke="#212121" stroke-width="0.445842" stroke-miterlimit="10"/>
<path d="M39.4749 39.2827L42.1064 38.4141C42.1064 38.4141 45.0303 39.2827 43.276 42.0335H39.7673C39.7673 42.0335 38.2528 43.765 37.0949 42.3839C36.7865 42.0161 36.6213 41.5543 36.5832 41.078C36.5072 40.1239 36.7601 38.5588 39.4749 39.2827Z" stroke="#212121" stroke-width="0.445842" stroke-miterlimit="10"/>
<path d="M45.5879 42.9138C45.5879 42.9138 45.6127 40.4048 47.6039 40.1601C47.8875 40.1254 48.1463 40.3295 48.1711 40.6118C48.2486 41.5036 48.1229 43.3669 45.7136 43.351" stroke="#212121" stroke-width="0.445842" stroke-miterlimit="10"/>
<path d="M42.7733 49.2192C42.6754 49.5754 42.5716 49.9373 42.4137 50.2732C42.364 50.3774 42.3113 50.4831 42.2441 50.5772C42.2192 50.612 42.209 50.6265 42.1812 50.6569C42.1695 50.6699 42.1008 50.7322 42.1315 50.7046C42.1184 50.7162 42.1008 50.7235 42.0862 50.7322C42.0906 50.7293 42.1286 50.7119 42.0935 50.7278C42.0511 50.7466 42.1067 50.7423 42.0643 50.7322C42.152 50.7524 42.0029 50.6989 42.0774 50.7379C42.0613 50.7293 42.0014 50.6916 42.0423 50.722C41.9342 50.6395 41.8991 50.5671 41.8289 50.4339C41.7529 50.2891 41.7076 50.169 41.6535 50.0068C41.595 49.8331 41.5672 49.6145 41.4459 49.4711C41.3465 49.3553 41.2003 49.2873 41.0468 49.2902C40.8406 49.2931 40.6944 49.4422 40.5351 49.5522C40.2325 49.7607 39.905 49.9402 39.5541 50.0517C38.6258 50.3485 37.6872 50.0864 36.9811 49.4407C36.8773 49.3452 36.7779 49.2438 36.6858 49.1367C36.6595 49.1063 36.6347 49.0759 36.6098 49.044C36.658 49.1049 36.6098 49.0411 36.5966 49.0252C36.5148 48.9311 36.43 48.9152 36.3101 48.8819C36.1274 48.8327 35.9446 48.7777 35.7648 48.7183C35.4505 48.6141 35.1406 48.4953 34.8394 48.3592C32.8132 47.4486 31.1524 45.8864 29.9434 44.0521C29.575 43.4947 29.2446 42.9113 28.9654 42.3046C28.9449 42.2612 28.9259 42.2163 28.9054 42.1729C28.8967 42.1512 28.8382 42.018 28.8703 42.0933C28.8499 42.044 28.8294 41.9948 28.8089 41.9441C28.7227 41.7313 28.4362 41.6401 28.2461 41.5228C27.3733 40.9901 26.543 40.3849 25.717 39.7855C25.0591 39.3092 24.4071 38.8256 23.7594 38.3363C23.7229 38.3088 23.6863 38.2813 23.6513 38.2538C23.4276 38.0844 23.2083 38.4608 23.4305 38.6287C24.7243 39.6118 26.0327 40.5847 27.385 41.4867C27.7374 41.7212 28.0926 41.9615 28.4727 42.1512L28.3718 42.0209C28.6437 42.7535 29.0399 43.4527 29.461 44.1086C30.3981 45.5737 31.6027 46.8811 33.0544 47.8598C34.0558 48.5359 35.1742 49.0368 36.3467 49.3394L36.2151 49.2395C36.8145 50.1009 37.9051 50.6916 38.9679 50.6047C39.4459 50.5657 39.9021 50.4136 40.3231 50.1878C40.4532 50.1183 40.5804 50.0401 40.7032 49.9576C40.7646 49.9156 40.826 49.8736 40.886 49.8302C40.924 49.8027 40.9971 49.7231 41.0453 49.7202C41.1491 49.7173 41.1681 49.9257 41.1915 50.0025C41.3114 50.3832 41.4941 50.9985 41.9268 51.139C42.2075 51.2302 42.4429 51.0405 42.5979 50.8277C42.9107 50.3977 43.0569 49.8331 43.1958 49.3307C43.2704 49.06 42.8464 48.9456 42.7733 49.2149V49.2192Z" fill="#212121"/>
<path d="M44.0731 40.9339C44.405 39.8785 44.2442 38.7999 43.5074 37.9544C42.9767 37.3449 42.2428 36.9265 41.4943 36.6355C41.332 36.5718 41.1654 36.5124 40.9972 36.469C40.7239 36.398 40.6069 36.8179 40.8803 36.8874C41.313 36.9989 41.6741 37.1625 42.063 37.3753C42.7632 37.7618 43.4284 38.325 43.6886 39.101C43.8787 39.6657 43.8275 40.2564 43.6506 40.8181C43.5658 41.0859 43.9898 41.2003 44.0731 40.9339Z" fill="#212121"/>
<path d="M38.7795 47.7276C39.0866 47.923 39.4155 48.0895 39.743 48.2473C40.585 48.6527 41.4637 48.9857 42.3613 49.2463C43.3291 49.5257 44.3188 49.6748 45.3071 49.8514C45.8392 49.947 46.386 49.9687 46.924 49.9007C47.0935 49.8789 47.2617 49.8514 47.4269 49.8123C47.5833 49.7762 47.7236 49.7211 47.8801 49.7863C48.0029 49.837 48.076 49.9441 48.1593 50.0411C48.4692 50.4016 49.1636 51.1443 49.668 50.6636C49.9867 50.3611 49.9867 49.7979 49.9867 49.3968C49.9867 48.9697 49.9443 48.5427 49.8902 48.1185C49.8537 47.8274 49.8113 47.5379 49.763 47.2483C49.7206 46.9935 49.7016 46.7112 49.6241 46.4651C49.5423 46.2045 49.3303 45.9989 49.1154 45.8411C48.5116 45.3966 47.7046 45.2562 46.9751 45.1881C46.6681 45.1592 46.3597 45.1491 46.0512 45.1491L46.2705 45.3662C46.1623 44.027 45.7939 42.627 45.1492 41.4457C44.8875 40.9679 44.5629 40.5162 44.1594 40.1455C43.9533 39.9559 43.6419 40.2628 43.8495 40.4525C44.5337 41.0808 44.965 41.9335 45.2661 42.7964C45.5103 43.4986 45.6784 44.2283 45.7851 44.9637C45.7997 45.0636 45.8202 45.2243 45.8319 45.3662C45.8407 45.4835 45.924 45.5834 46.0512 45.5834C46.8976 45.5863 47.8406 45.6355 48.6066 46.0365C48.8055 46.1408 48.9297 46.2233 49.0745 46.3826C49.0905 46.3999 49.1446 46.4709 49.1081 46.4202C49.1256 46.4448 49.1446 46.4694 49.1607 46.4955C49.1724 46.5129 49.1812 46.5331 49.1914 46.5505C49.2206 46.5983 49.1943 46.5577 49.1914 46.5491C49.3625 47.3453 49.4867 48.1648 49.535 48.9784C49.5525 49.2825 49.5613 49.5923 49.5233 49.8949C49.5174 49.9426 49.4926 50.0744 49.4677 50.1555C49.4619 50.1772 49.4195 50.2785 49.4443 50.2264C49.4297 50.2583 49.4122 50.2872 49.3946 50.3176C49.3639 50.3697 49.4151 50.2974 49.3683 50.348C49.3215 50.3987 49.3946 50.3466 49.342 50.3683C49.2937 50.3886 49.3683 50.3842 49.3215 50.3755C49.3171 50.3755 49.2616 50.3857 49.3127 50.3784C49.3639 50.3712 49.3011 50.3813 49.2923 50.3784C49.285 50.3755 49.2704 50.3784 49.2616 50.377C49.2338 50.3741 49.3186 50.3915 49.2689 50.377C49.244 50.3697 49.2192 50.3625 49.1943 50.3567C49.13 50.3393 49.2192 50.3741 49.1592 50.3422C49.13 50.3263 49.0993 50.3104 49.0701 50.293C49.0438 50.2771 49.0174 50.2583 48.9911 50.2409C48.9794 50.2337 48.9692 50.225 48.9575 50.2163C48.9385 50.2032 48.9867 50.2409 48.94 50.2032C48.8844 50.1584 48.8318 50.112 48.7791 50.0628C48.6753 49.9644 48.5774 49.8587 48.4838 49.7515C48.2353 49.4649 47.9444 49.2593 47.5394 49.3375C47.212 49.3997 46.9006 49.4808 46.5658 49.4996C46.2924 49.5141 46.0176 49.5069 45.7456 49.4794C45.4576 49.4504 45.1813 49.3708 44.8963 49.3346C44.2881 49.2564 43.6858 49.1406 43.0922 48.9929C41.6815 48.6425 40.3146 48.1156 39.0573 47.3888C39.0383 47.3772 39.0193 47.3656 39.0003 47.3526C38.762 47.2006 38.5427 47.577 38.7795 47.7276Z" fill="#212121"/>
<path d="M28.4675 37.6589C28.662 38.102 28.8973 38.532 29.1429 38.9489C29.6546 39.8205 30.2496 40.6602 30.966 41.3783C31.3402 41.7533 31.7642 42.1311 32.2349 42.383C32.7056 42.635 33.324 42.5466 33.6764 42.1355C33.8313 41.9545 33.9074 41.7315 34.0024 41.5173C34.0974 41.303 34.1895 41.1061 34.2904 40.9049C34.5214 40.4387 34.7772 39.9826 35.0652 39.5483C35.6675 38.642 36.4964 37.6691 37.6338 37.4693C37.9116 37.4215 37.7932 37.0017 37.5169 37.0509C36.5315 37.2232 35.7421 37.9413 35.1456 38.6956C34.5491 39.4498 34.0492 40.346 33.6471 41.2451C33.5623 41.4362 33.498 41.6649 33.3664 41.8285C33.2202 42.0095 32.9849 42.108 32.7524 42.092C32.5024 42.0761 32.2934 41.914 32.096 41.775C31.8884 41.6273 31.6925 41.4637 31.5054 41.29C30.7657 40.6066 30.1634 39.7872 29.6429 38.9315C29.3505 38.4509 29.0728 37.9543 28.8462 37.4389C28.7336 37.1826 28.3564 37.4041 28.4675 37.6575V37.6589Z" fill="#212121"/>
<path d="M43.8613 35.9531C43.8613 35.9531 48.4503 38.7227 53.7294 36.3715C53.9618 36.2673 54.1752 36.5482 54.013 36.7436C52.7075 38.3058 50.3435 41.4185 50.8786 42.9025C50.8786 42.9025 51.1096 45.0104 48.1009 45.3637" stroke="#212121" stroke-width="0.445842" stroke-miterlimit="10"/>
<path d="M22.6639 32.9115L26.0263 34.6488C26.0263 34.6488 26.1725 37.9787 22.9563 38.413L20.471 34.6488C20.471 34.6488 17.6436 34.2174 18.1787 32.15C18.3892 31.3378 18.9784 30.6588 19.7693 30.3576C20.6815 30.0102 21.9622 30.1318 22.6639 32.9115Z" stroke="#212121" stroke-width="0.445842" stroke-miterlimit="10"/>
<path d="M19.4805 30.8146C19.4805 30.8146 20.2114 30.0908 21.2348 30.6699L22.4043 33.7102L25.6206 35.8819C25.6206 35.8819 25.3282 37.0401 24.8896 36.8953L21.2348 34.8684L19.4805 30.8146Z" fill="#F6343C"/>
<path d="M37.6074 10.6875V11.2662L39.2155 11.8449L39.5079 10.8322L37.6074 10.6875Z" fill="#AB8872"/>
</svg>
