<svg width="32" height="32" viewBox="0 0 32 32" fill="none" xmlns="http://www.w3.org/2000/svg">
<rect x="0.535156" y="1.16406" width="30" height="30" rx="15" fill="white" stroke="#4F75FF" stroke-opacity="0.4"/>
<mask id="mask0_733_6120" style="mask-type:alpha" maskUnits="userSpaceOnUse" x="3" y="4" width="25" height="25">
<rect width="24" height="24" transform="matrix(0 -1 -1 0 27.5352 28.1641)" fill="#D9D9D9"/>
</mask>
<g mask="url(#mask0_733_6120)">
<path d="M5.53516 19.6641H7.03516L8.53516 17.6641H14.0352L11.5352 26.1641H13.5352L18.5352 17.6641H24.0352C24.4518 17.6641 24.806 17.5182 25.0977 17.2266C25.3893 16.9349 25.5352 16.5807 25.5352 16.1641C25.5352 15.7474 25.3893 15.3932 25.0977 15.1016C24.806 14.8099 24.4518 14.6641 24.0352 14.6641H18.5352L13.5352 6.16406H11.5352L14.0352 14.6641L8.53516 14.6641L7.03516 12.6641H5.53516L6.53516 16.1641L5.53516 19.6641Z" fill="#4F75FF"/>
</g>
</svg>
