<svg width="25" height="25" viewBox="0 0 25 25" fill="none" xmlns="http://www.w3.org/2000/svg">
<path d="M12.5352 0.164062C9.27616 0.164062 8.8675 0.177888 7.58756 0.236264C6.3103 0.294532 5.43799 0.497418 4.67468 0.794011C3.88557 1.10068 3.21636 1.51102 2.54926 2.17813C1.88212 2.84523 1.47177 3.51451 1.16514 4.30362C0.868476 5.0669 0.665662 5.93921 0.607322 7.21647C0.548946 8.49641 0.535156 8.90507 0.535156 12.1641C0.535156 15.4231 0.548946 15.8317 0.607322 17.1117C0.665662 18.3889 0.868476 19.2612 1.16514 20.0245C1.47181 20.8136 1.88215 21.4828 2.54926 22.15C3.21639 22.8171 3.88557 23.2274 4.67468 23.5341C5.43799 23.8307 6.3103 24.0336 7.58756 24.0919C8.8675 24.1502 9.27616 24.1641 12.5352 24.1641C15.7941 24.1641 16.2028 24.1502 17.4828 24.0919C18.76 24.0336 19.6323 23.8307 20.3956 23.5341C21.1847 23.2274 21.8539 22.8171 22.5211 22.15C23.1882 21.4828 23.5985 20.8136 23.9052 20.0245C24.2018 19.2612 24.4047 18.3889 24.463 17.1117C24.5213 15.8317 24.5352 15.4231 24.5352 12.1641C24.5352 8.90507 24.5213 8.49641 24.463 7.21647C24.4047 5.93921 24.2018 5.0669 23.9052 4.30362C23.5985 3.51451 23.1882 2.84523 22.5211 2.17813C21.8539 1.51102 21.1847 1.10068 20.3956 0.794011C19.6323 0.497418 18.76 0.294532 17.4828 0.236264C16.2028 0.177888 15.7941 0.164062 12.5352 0.164062ZM12.5352 2.32621C15.7393 2.32621 16.1188 2.33846 17.3842 2.3962C18.5542 2.44953 19.1896 2.64502 19.6124 2.80936C20.1726 3.02707 20.5723 3.28708 20.9922 3.707C21.4121 4.12692 21.6721 4.52669 21.8899 5.08679C22.0542 5.50964 22.2497 6.14506 22.303 7.31503C22.3608 8.5804 22.373 8.95994 22.373 12.1641C22.373 15.3682 22.3608 15.7477 22.303 17.0131C22.2497 18.1831 22.0542 18.8185 21.8899 19.2413C21.6721 19.8015 21.4121 20.2012 20.9922 20.6211C20.5723 21.041 20.1725 21.3011 19.6124 21.5188C19.1896 21.6831 18.5542 21.8786 17.3842 21.9319C16.119 21.9897 15.7395 22.0019 12.5352 22.0019C9.33079 22.0019 8.95135 21.9897 7.68613 21.9319C6.51611 21.8786 5.88074 21.6831 5.45792 21.5188C4.89775 21.3011 4.49801 21.041 4.07813 20.6211C3.65821 20.2012 3.39817 19.8014 3.18045 19.2413C3.01612 18.8185 2.82066 18.1831 2.76729 17.0131C2.70956 15.7477 2.6973 15.3682 2.6973 12.1641C2.6973 8.95994 2.70956 8.5804 2.76729 7.31503C2.82066 6.14502 3.01612 5.50964 3.18045 5.08683C3.39817 4.52665 3.65821 4.12692 4.0781 3.70704C4.49801 3.28708 4.89778 3.02707 5.45789 2.80936C5.88074 2.64502 6.51615 2.44953 7.68613 2.3962C8.95149 2.33846 9.33104 2.32621 12.5352 2.32621" fill="#ACAAAF"/>
<path d="M12.5352 16.166C10.326 16.166 8.53519 14.3751 8.53519 12.166C8.53519 9.9568 10.326 8.16595 12.5352 8.16595C14.7444 8.16595 16.5352 9.9568 16.5352 12.166C16.5352 14.3751 14.7444 16.166 12.5352 16.166ZM12.5352 6.00381C9.13192 6.00381 6.37305 8.76268 6.37305 12.166C6.37305 15.5693 9.13192 18.3281 12.5352 18.3281C15.9385 18.3281 18.6974 15.5693 18.6974 12.166C18.6974 8.76268 15.9385 6.00381 12.5352 6.00381ZM20.3809 5.76034C20.3809 6.55566 19.7361 7.20033 18.9408 7.20033C18.1456 7.20033 17.5008 6.55566 17.5008 5.76034C17.5008 4.96505 18.1456 4.32031 18.9408 4.32031C19.7361 4.32031 20.3809 4.96505 20.3809 5.76034Z" fill="#ACAAAF"/>
</svg>
